<svg id="Layer_1" data-name="Layer 1" xmlns="http://www.w3.org/2000/svg" viewBox="0 0 500 308"><defs><style>.cls-1{fill:#202020;}</style></defs><title>Artboard 1</title><path class="cls-1" d="M119.32,116.6c.37-.06.3-.5-.61-.69l-.83.45Z"/><path class="cls-1" d="M113.62,113.66c-1.15,0-2.52.24-2,1,1.21-.34,1.4,0,2.73-.44.93.18,1.51.67,1.3.85.36-.07,1.35.55,2,.3a6.64,6.64,0,0,0-4.17-1.32C113.14,113.84,113.51,113.76,113.62,113.66Z"/><path class="cls-1" d="M24.56,115.12a2.73,2.73,0,0,1,.26-.61A1.5,1.5,0,0,0,24.56,115.12Z"/><path class="cls-1" d="M65.26,152.8c-.37-.22-.56-.27-.61-.23C65,152.75,65.32,152.9,65.26,152.8Z"/><path class="cls-1" d="M73.06,158.63l-.46-.34A1,1,0,0,0,73.06,158.63Z"/><path class="cls-1" d="M24.56,115.12a7.22,7.22,0,0,0-.49,1.66c.11.07.15-.15.19-.48S24.44,115.52,24.56,115.12Z"/><path class="cls-1" d="M101,112.27a3.83,3.83,0,0,0,.83,0l-.76-.09Z"/><path class="cls-1" d="M47.45,105.71l.46,0a2.69,2.69,0,0,0,.37-.3Z"/><path class="cls-1" d="M66.83,105.11c-.44,0-.61.52-.78.77a1.61,1.61,0,0,1,1-.37A.56.56,0,0,0,66.83,105.11Z"/><path class="cls-1" d="M97.21,109.21l.55,0Z"/><path class="cls-1" d="M33.56,107.24a.48.48,0,0,0-.23-.16C33.35,107.15,33.43,107.2,33.56,107.24Z"/><path class="cls-1" d="M17.38,266.68s-.06,0-.1,0S17.37,266.83,17.38,266.68Z"/><path class="cls-1" d="M11.21,288.5l0-.31A1.08,1.08,0,0,0,11,288Z"/><path class="cls-1" d="M89.6,167.73l-.1,0C88.91,167.72,89.24,167.75,89.6,167.73Z"/><path class="cls-1" d="M65,15.42c.61,1.82-2.23-2.16-1.13.47C63.89,15.55,66,17.53,65,15.42Z"/><path class="cls-1" d="M100.53,112.1l-.77-.16A5.58,5.58,0,0,0,100.53,112.1Z"/><path class="cls-1" d="M63.86,15.89h0l.12.26Z"/><path class="cls-1" d="M105,130.79a1.2,1.2,0,0,0-.21.44C104.88,131.21,104.94,131.11,105,130.79Z"/><path class="cls-1" d="M100,161.55a6.54,6.54,0,0,0,.53-.65C100.34,161.15,100.2,161.37,100,161.55Z"/><path class="cls-1" d="M102.37,115a3.09,3.09,0,0,0-.14-1.1.85.85,0,0,0,0,.17A1.63,1.63,0,0,1,102.37,115Z"/><path class="cls-1" d="M99.33,98.71c0,.1,0,.22,0,.33l.14.51Z"/><path class="cls-1" d="M13.88,216.34a2.43,2.43,0,0,1-.41.81C13.83,216.85,14.24,219.24,13.88,216.34Z"/><path class="cls-1" d="M101.05,112a.6.6,0,0,1-.52.14l.54.08C101.13,112.11,101.16,112,101.05,112Z"/><path class="cls-1" d="M97.88,115l-.35-2.57C97.6,113.19,97.73,114.13,97.88,115Z"/><path class="cls-1" d="M23.58,100.11l-.09.6A1.22,1.22,0,0,0,23.58,100.11Z"/><path class="cls-1" d="M96.08,104.92a5.77,5.77,0,0,0,.09-1.5,1.58,1.58,0,0,0-.2-.27Z"/><path class="cls-1" d="M13.46,217.15h0Z"/><path class="cls-1" d="M16.68,234.19c-.24-2.5-.84-1.1-1.32-1.59-.51-2.95.4-1.43.67-2.48-.4-1.84-1.23-3.18-1.36-4.57.11-.11.13-.39.31-.09-.8-1.89-.69-5.8-1.67-8a.72.72,0,0,1,.15-.32,1,1,0,0,1-1,.46c-.13-1.11-.69-2-.26-2.48a1.49,1.49,0,0,0,.45,1L12.34,215c.57-1.12.42,1.56.93,1.51-.49-2.25-1.33-4.83-1.31-6.59.64-.43.64,4,1,1.66l0,2.72c.84-2.18.11,1.64,1-.37-.17-3.56-.78-3.92-.91-7.46-.44-.76-.53.31-1-.44-1.13-5,1.36-4.09.19-7.69-.5-.92-1.44-1.24-1.06-3.89l.8.85c0-3.42-1.17-1.9-.78-5.51.33.63.35,2.68.42,2.16.53-2.34-.49-1.62-.55-3.41l.67-.39c-.32-3.63-.63-7.65-.72-11.7.2.23.4.93.62,0-.06-1.28-.1-2.59-.05-3.93s.2-2.68.34-4c.29-2.68.62-5.34,1-7.76l-.4-1.92c.06-.44.35-.78.42-.3.41-1.89-.36-.14-.5-1.07.07-1.09.48-1.4.59-.7-.07-1.7-.09-4.13,0-6.56a30,30,0,0,1,1.12-6.59l.08.72c.62-2.71-.75-3.29.16-5.76l0,.51c.58-3,1.13-6.09,1.65-9,.28-1.48.53-2.91.89-4.23a30.24,30.24,0,0,1,1.21-3.63c-.64-1,1.62-5.76.55-6.39,1.33-3.24,1.34-2.22,2.86-6.85.36-1.24-.26-2.05,0-3.64l.61.12-.1-2.28,1-.93.24-1.49c-.19.57-.6,1.16-.75,1,.35-2.34,1.92-5.42,2.24-5.39.33-1.83.6-3.67,1-5.49.21.18,0,1.1,0,1.85.22-3,.77-.34,1-3.11-.23.32-.29-.29-.39-.38a27.07,27.07,0,0,0,2.11-6.39l.28.54c1.25-3.92,2.4-8.35,3.79-12.77-.69,1.52-1.28.93-.94-.39l.79-.31c-.12-1-.67,1.27-.59-.6.61-1.62,1.07-.87,1,.14l.45-2.07c.22-.06.16.44.36.64-.11-.94,1.77-3.24,1.5-4.64l.22,0c1.46-4.39,1.93-6.45,3.15-10-.51-.26.1-1.61,0-2.83,1.07-2.56,2.52-5.32,3.62-8.48.53-2.31-.22-.81-.17-1.91.54,0,1.62-3.15,1.38-1.4,1.28-3.81,1.66-4.85,3-9.77-.38.45-.68,1-.73.63.23-.89.92-1.89,1.11-1.68l0,.24a39.94,39.94,0,0,1,3.53-8.6c.71-1.42,1.39-2.8,1.94-4.12.27-.66.5-1.31.69-1.93a15.23,15.23,0,0,0,.38-1.57l0,.21A6.89,6.89,0,0,1,54,10.51c.06-.1.12-.18.17-.27s.08-.12.14-.18a1.06,1.06,0,0,1,.4-.29c.46,0,.29.13.17.25a.26.26,0,0,0,0,.44.5.5,0,0,1,.51-.12,2.3,2.3,0,0,1,.86.52,8.45,8.45,0,0,1,1.56,2,31,31,0,0,0,3.29,4.69,9.94,9.94,0,0,0,1.23,3c.61,1.13,1.4,2.35,2.23,3.6s1.7,2.49,2.4,3.73a19.28,19.28,0,0,1,1.62,3.49l.18-.39c.86.8.49,1.28.83,2,.19-.24-.32-1.21.19-.7,5,8.08,8.62,17.61,12,26.67,1.22,3.33,2.45,1.18,3.32,5.67L84,63.71c.42.8.83,1.61,1.21,2.44s.69,1.67,1,2.52c.65,1.7,1.26,3.43,1.86,5.15S89.18,77.3,89.76,79s1.21,3.38,1.82,5c-.26-.36-.45-.32-.64-1-.06,1.56,1.46,5.28,1.84,5.21.25,1.07-.27.34-.28,1,.15,1.49,1.51,3.46,1.24,4.35,0,.15-.25-.37-.35-.63.46.89,1,4.4,1.33,3.38.4,2.61,1.34,4.87,1.45,7,.87,1.22.64,4.47,1.53,4.75-.92,0,0,4.68.75,6.27-.36-.51,0,1.47-.52.88.32,1.87.67,3.58,1.1,3.19a12.19,12.19,0,0,0,.52,5.06c.4,1.54.62,2.91,0,4,.5,2.78,1,5.47,1.31,8.11l.46,3.92c.15,1.29.29,2.57.34,3.78-.46-.1-.47-1.39-.6-2.77s-.22-2.66-.69-2.52c.17,1.19.35,2.26.53,3.27s.31,1.87.4,2.8a17.79,17.79,0,0,1-.35,5.93c-.35,1.14-.24-.73-.36-1.15a21.73,21.73,0,0,1-1.48,6.39,24.43,24.43,0,0,1-2.77,5.18c-.06-.06.13-.44.31-.77-.41.63-1.22,1.08-.89,1.34l.44-.55c.62-.2.36.51-.16,1.35s-1.4,1.63-1.42,1.76c.34-.79-.6-.47-1.39-.23-.88.09-1.53.1-.82-.84-.39.18-.9.51-.78.74-.71-.05-.91-.2-.27-.54-1.19.19-1.6.34-2,.41a3.23,3.23,0,0,1-1.94-.21c.07-.18.56-.11.85-.28a6.65,6.65,0,0,1-4.48-1.33c.18,0,0-.3.6,0-1.66-.91-3.24-1.66-4.84-2.43a27.72,27.72,0,0,1-5-3c1.56,0-1.11-1-.91-1.8l-2.12-1.09.61.82c-1.74-1.13-3.58-1.66-5-2.82l1.47.57-3.36-2,1.71,1.42c-2-.81-.32.92-2.54-.75.51.24-1.75-1.12-2.43-2.07h0a9.57,9.57,0,0,1-3.22-1.69c-.2-.42.72-.53.58-.8-1.19,0-4.19-2.47-5.63-2.6.44.1.67-.22.6-.37l-1,0c-.73-.66-.8-.8-.5-1-2.4-1.64.26,1.29-2.42-.9.25.11.19,0,.7.22-2.79-2-5.79-3.32-8.33-5.23-.39-1.14,2.43,1.33,1.87.22-2-1.17-4.08-2.25-6.16-3.36a22.77,22.77,0,0,1-5.51-3.81l.54.6c-.56.2-1.1-.44-1.68-1.28-.28-.43-.59-.89-.93-1.34a5.25,5.25,0,0,0-1.14-1.21c.4.35.9.14.72.11-.87-1.15-1.81-2.26-2.68-3.62a10.28,10.28,0,0,1-1.89-5l.25.5c.09-.39.11-.83.2-1.28.07-.23.13-.45.19-.69s0-.23.09-.35L27,115l.31-.67a5.33,5.33,0,0,1,.42-.6l.42-.57c.17-.15.31-.31.47-.43.14-.54,1-1.1.25-1.05,1.31-.51,2.54-.87,3.81-1.25s2.57-.7,3.89-1c2.67-.57,5.3-1.21,8-.77-.63.06-1.47.37-1,.33l4.43-.64c-.39-.45-.61-.24-1.58-.51a7.44,7.44,0,0,1,2.91-.71c-2,.44.07.74.95.94-.16-.13.13-.3.05-.44,2.38.69.33-1,3.56-.57l-.16.25a21.59,21.59,0,0,1,3.58-.51c.55.52-1.27.3-1.33.74,1.8-.12,3.55-1.1,5.2-.58-.77.15-1.88.17-2.64.32a8.54,8.54,0,0,0,3.32.54h-.13c1,.07,2,.18,3.05.3l-.78-.19c2.29-1.35,4.61-.19,7.7-.94-3,.73-.51.48-.77,1.07.77.21,1.94.45,1.59.6,1.47-.43,2.37.54,4.44,0,.07.2,1.53.12,1.17.59,1.87,0-.41-.38-.24-.6,2.94-.43,6.65,1.43,10.87,1.08a26.73,26.73,0,0,0,3.94-.11,18.79,18.79,0,0,1,3.75,0c1.06.51-1,.54-1,.54a17.15,17.15,0,0,0,4.8.91c-.37.09,0,.31.42.63,1.34.23,1-.51,2.75.14a4.83,4.83,0,0,1-1.51.49c.81.08,1.62.11,2.44.14s1.64.11,2.47.22c.35.43-1.1.27-1.71.35,1.85.29,4.79.81,5.48.47l-1.12-.5c.67.15.23.53-.29.51-1.66,0-2.21-.72-2.25-.93l1.19.15c-.46-.69-1.64-.93-3-1.06a33.13,33.13,0,0,1-4-.39l1.15-.61-2.55.17c-.47-.32-.73-.85.46-.73-1.62-.74-1.56,0-2.93-.71-.15-.1-.07-.13.08-.14l-1.7,0c.35-.12-.18-.63.82-.33-2.91-1-4.93-.15-6-1l.26,0c-4.2-.32-.49.54-3.7.84L85,106.92l-.49.55c-.42-.08-1.27-.21-1.09-.44-1.65.26.25.3-.73.6a15.26,15.26,0,0,0-3.67-.57c-1.24-.09-2.27-.19-2.47-.7-.78.41,2,.5-.28.67-.56-1.09-2.57,0-4.45-.58.61-.51,2.41-.15.52-.71-1.2.87-3.71-.41-5.34-.23-.09.74-3.51.19-6.21.5a9.28,9.28,0,0,0-2.8-.3c-1.62,0-3.57-.08-4.83-.17l.07-.12c-.46.73-3.05.78-4.93,1,0-.44.37-.64,1.38-.9l-1.78.12a5.56,5.56,0,0,1-2.08.62l.4-.59c-1.19.12-2.36.39-3.62.62a21.53,21.53,0,0,1-4.14.47c-.11.53,2.56,1.13-.57,1.85-.16-.27-.34-.72.49-.93a4.54,4.54,0,0,1-1.52.29l1.22-.61c-1.4,0-.67.46-1.77.57,0-.4-.86-.16-.75-.49a6.38,6.38,0,0,0,1.39-.19,14.56,14.56,0,0,1-3.4-.05c.16.2.11.51-.81.79-2.37.73-.95-.24-2.44.07a8.24,8.24,0,0,1-1.22.75c-.44.28-.78.57-.63.84a2.18,2.18,0,0,1-1.26.36c-.24.28-.66.7-1.08,1.22S25.33,112.43,25,113c-.49,1.22-.72,2.05-.12,1.45l.18-.3-.07.21h0a13.55,13.55,0,0,0,3.13,12.09l-.16.11c1.68,1.81,3.8,3.91,5.41,4.65.53.46,1.09,1.33.71,1.33.79.5,1.25.73,1.79,1A18.21,18.21,0,0,1,38,135.11c-1.72-.69.37.61-1.71-.8,1.9,1.43,2.17,2,4.59,2.88-1,0,1.15,1.49,2.17,2L41.86,138a32.77,32.77,0,0,1,2.92,1.88l-.87.23c3.62,3.27,8.05,3.5,10.41,6.62,1.33.29-2-1.68-.77-1.53,1.82,1.26,3.25,3.31,3.83,3.68,2.36,1.94,2.91.7,5.44,2.62-.21-.42-.19-1.16,1.93-.07,1.82,1.26,1.75,2.3.47,1.71-.45-.27-.63-.47-.57-.53-.65-.31-1.49-.73-.89,0l.37,0c.79.79,3.38,2.41,2.56,2.35,1.53.71.82.06-.16-.71,2.21,1.81,3.73,2.39,6.07,4.16-.32-.36-.53-.83-.14-.58,3.45,2.56,1.83.64,4.34,2.11,1.19,1.19-1,.41,1.66,1.73,1.38,1.17,0,.73-.72.51,2.46,1,4.07,3,5.59,3.83-.49-.18-1-.37-1.45-.57.85.35,1.53.71,2.25,1.05-.2-.28-.41-.55-.6-.82.78.48,1.52.79,1.43,1,1,0-.38-1,1.52-.73a6.83,6.83,0,0,0,2.31.6c.85.13,1.6.14,1.83.43-1,0-1.5-.11-1.7-.07s-.15.13-.06.24.18.23,0,.3a2.61,2.61,0,0,1-1.41-.06c.69.08,1.51.24,2.56.36.15.08-.16.12-.45.14a6.44,6.44,0,0,0,2.15.07,1.6,1.6,0,0,0,.9-.37,4.65,4.65,0,0,1,.86-.59,6.54,6.54,0,0,1,.79-.33c.31-.16.69-.35,1.17-.56-.36.54,1.24.23,1.75-.3-1.47.95-.94-.08.12-1.13a5.63,5.63,0,0,0,1.22-.93,3.48,3.48,0,0,0,.63-.73,7.27,7.27,0,0,1,.85-1.31l-1,1c0-.61.88-1.47,1.62-2.94.31,0-.65,1.36-.23.93a9.28,9.28,0,0,1,1.52-2.66,7.66,7.66,0,0,0,1.42-3.26c.58-1,.7.09,1.12-.86a9.36,9.36,0,0,1,.29-1.71,9.46,9.46,0,0,1,.38-1.2,7.47,7.47,0,0,0,.53-3c-.61.8-.43.94-.73-1.15a39.16,39.16,0,0,1-.33,4.82l-.06-1.59-.14-1.56a32.73,32.73,0,0,1-.44,3.88c-.08-1.52,0-1.34-.52-.75,1.1-1.79.22-3.85.84-6l1.17.14a12.82,12.82,0,0,0-.09-4.91,28.76,28.76,0,0,1-.56-5.45l-.13,1.39c-.5-.55-.21-2.65-.5-4,.4.1.46-.78.65-1.39-.28.1-.27-3.15-1.09-3.46l.33-2c-.13-3.49-1.6-3.81-1.88-7.13.56.94.64-.61,1.23,1.58-.14-1.11-.2-2.12-.47-2.1.15-.68-.92-3-.75-4.06a2.94,2.94,0,0,1-.85-1.76c0-.14.19,0,.19,0-.19,0-.59-1.89-.84-.74a17.45,17.45,0,0,0-.59-6.44c-.51-2.29-1-4.51-.82-6.09-.64-2.35-1.5-5.16-2-7.3.15.11.19,0,.25.37-.36-3-1.52-1.54-2-5,.14-1.87.83,1.68.76.55,1.13-.8-1.29-4-1.19-6.44l.22.53c-.07-1.85-1.77-4-2.56-6.83,0,0,.15.1.19,0a54.8,54.8,0,0,1-3.81-7.74c.77.64.68,1.1,1,.43-.49-1.16-.66.62-1.63-1.68,0-.87-.45-2.63,0-3.05.29.73.62,1.45.89,2.2.25-1.4-1.15-2.85-1.49-4.06l.35,0a16.43,16.43,0,0,0-1.8-3.25,20.16,20.16,0,0,1-1.84-3.45l-.05.46c-1.57-1.63-.32-1.8-1.7-3.51l.47-.91c-.7-1.23-2.76-4.15-4-6.35A36.23,36.23,0,0,1,83,49.12c-.54-1.29-2.09-4.26-2.74-4.75A5.59,5.59,0,0,1,81.2,46a21,21,0,0,1-3.75-5.66c1.57-.25-3-6.59-3-8.9A46.44,46.44,0,0,1,70.72,25c-1.23-2.23-2.48-4.58-4-7,.07,2.38-.9-1.41-1.76-.43a5.76,5.76,0,0,1-1.07-1.64l-1.65-3.76c-.24-1,.93.9,1.09.65-1.55-2.49-.25-1.32-1.07-3.12-.08.28-.32.19-.71-.23S60.6,8.32,59.9,7.49A13,13,0,0,1,61.2,10C59.65,8.35,59,7.43,58.11,6.49a4.84,4.84,0,0,0-.83-.67A4.93,4.93,0,0,0,56,5.26a4.83,4.83,0,0,0-4.06.87A5.82,5.82,0,0,1,54,5a7.14,7.14,0,0,0-1.69.59,5.67,5.67,0,0,0-.92.56,7.54,7.54,0,0,0-.83.72,9.82,9.82,0,0,0-2,3.23c-.21.53-.39,1.07-.52,1.53s-.24.89-.33,1.31a7.54,7.54,0,0,0-.24,2.16c-.26.3-.74.64-.5-.25C45.05,19.45,44,25.63,42.12,29.08L42,28.62c-.25.91,0,1.72-.73,2.72-.09-.1-.15-.46-.31-.06A13.48,13.48,0,0,1,40,34.9l0-1.11c-2,4.48-1.77,7.35-3,11.28-.83-.31-2.37,3.24-3.14,5l-.09-.1c-2,5.35-2.48,9.4-3.81,14.53C28,67.3,26.23,75,24.14,79.84c.38-.73.61.33.43,1.25-.52,1.14-.38,3.46-1.1,3l.14-.42c-1,.67-1.54,3.18-2.13,5.08l.92.61c-1.49,2.27-2.19,5.62-2.87,8.66-.33,1.53-.63,3-1,4.2a7.6,7.6,0,0,1-1.21,2.83c0,1.29-.41,2.8-.45,4.07l-.53-.2a70,70,0,0,0-2.21,9.28l-.22-.95c-.54,2.38,1,3.35.53,5.54l-1,.49L12,129.53a28,28,0,0,0-.83,6.3c-.11-.09-.33-.25-.24-.94-.44,2-1.73,7.57-.5,7-.75-.06-.69,4.33-.68,6.63l-.51-.42a12.71,12.71,0,0,1,.58,4.79c-.14.63-.5.51-.27-.32-.51,2.09.35,1.71-.21,4.24l-.25-1a5.7,5.7,0,0,0,.22,3.26c.05,1.38-.47,4.12-1,4.41a4.06,4.06,0,0,1,.4,2.82c-.2.16-.29-.32-.33-.56-.58,3.64.27,5.47-.34,8a.52.52,0,0,0-.34.41c0-1.45.13-2.76.19-3.69a6.68,6.68,0,0,1,.14-1.33c-.51,0-.75,2.32-1.34.41l.53,3.59a15.71,15.71,0,0,1,.2,3.87,1.28,1.28,0,0,1-.19.3l0-.23a4.94,4.94,0,0,0,.06,1.45,18.17,18.17,0,0,0-.18,1.9c-.43.27-.27,2.71-.31,3.89.55-.11.48,1.43.94,0-.05.18-.07-.22-.08-1a3.11,3.11,0,0,0-.05-.5l.05.08v-2.92a5.5,5.5,0,0,1,.17,3.19c.36.6.71,1.26.89,1.63-.73,1.61-1.05,4.71-1.52,5.16.22,1.79.34,3.91.55,5.84A14.13,14.13,0,0,0,9,200.54c.21,1-.22,1.19-.36,1.58a9.58,9.58,0,0,0-.35-1.58c.38,2,.62,6,1.38,6.41-.09,2.58-.81-1.37-.35,2.12L9,208.62c-.48,7,3.09,11,2.42,18.72,0-.53.05-.8.16-.92.31,8.71,2.53,17.79,1.77,26.39-.1,2.44.32,2.68.71,4.16l-.6.53.72,2.54a14.42,14.42,0,0,1-.56,5,14.66,14.66,0,0,0-.46,5.71l.45-.55c-.06.4-.08.93-.12,1.49l-.17,1.66c-.11,1.05-.25,1.85-.46,1.69a1.29,1.29,0,0,1,.06,1.19h-.31c0,1.35-.09,2.68-.12,4-.39,1.51-.67,1.33-1,1.33s-.53.19-1.11,2.35c-.27,1.63-.22,4.85.13,4.29.17-.65.6-1.63.92-1.61l-.21,1.55c.84.51,1.47,2,3-1.67l.08-2.77c.22-.25.43-.5.62-.76-.12.75-.32,1.49-.48,2.24a4,4,0,0,0,.44-3,2,2,0,0,0,.69-1l-.41-2.77c.41-.26.5,1.29,1-.44-.21-1.3-1,1-1-1,.57-1.22.87-.81.69-2.36.27-.18.38.15.41.77-.14-1.39.35-3.58-.14-4.32.62-1.3.19-4.55,1.06-4.37a16.08,16.08,0,0,1-.6-3.64c1,2.29.2-4.63,1.26-4a10.15,10.15,0,0,1-.67-4,33,33,0,0,0-.5-4.95,1.38,1.38,0,0,1,.21.74,21.9,21.9,0,0,1,.38-3.24c-.79-.17-1.14-2.74-1.72-4.08.62-2.09,1,1.16,1.68.47-.61.14-.9-3.48-1.38-2.74.33-1.59.11-1.35.69-2.21-1-.18-.28-1.42-1-2.65.25-2.27.85-.66.31-3.08C16.11,232,16.68,234.19,16.68,234.19Zm-5.76-57.74h0l0,1.2Zm.12-4.87c0,.59-.12,1.33-.11,2.11-.2.17-.39,0-.38-.52C10.67,173.44,10.83,172.3,11,171.58ZM6.93,181.87c-.06-.78.05-1,.17-1.15,0,.37,0,.8,0,1.37,0,0,.05.07.07.09A.86.86,0,0,1,6.93,181.87Z"/><path class="cls-1" d="M7.65,183.28c0,.11,0,.17,0,.32,0-.16.09-.31.13-.47l-.17-.27Z"/><path class="cls-1" d="M24.88,114.41l-.06.1a1.12,1.12,0,0,1,.17-.19C24.94,114.38,24.92,114.37,24.88,114.41Z"/><polygon class="cls-1" points="22.48 105.43 22.34 105.41 22.36 105.85 22.48 105.43"/><path class="cls-1" d="M50.23,108.09a.63.63,0,0,0,.36.13A1,1,0,0,0,50.23,108.09Z"/><path class="cls-1" d="M61.81,107.84c.54.06,1.09.11,1.63.19A15.79,15.79,0,0,0,61.81,107.84Z"/><path class="cls-1" d="M70.7,108.31a.64.64,0,0,0,.18-.24h0Z"/><path class="cls-1" d="M96.69,159.7a1.67,1.67,0,0,0,.16-.24C97.2,158.87,96.94,159.25,96.69,159.7Z"/><path class="cls-1" d="M62.12,148.26a13.8,13.8,0,0,1,1.29.51C62.8,148.32,62.31,148,62.12,148.26Z"/><path class="cls-1" d="M97.92,115.32h0l-.05-.28Z"/><path class="cls-1" d="M65.07,149.83a6.84,6.84,0,0,0-1.66-1.06A10.63,10.63,0,0,0,65.07,149.83Z"/><path class="cls-1" d="M108.71,114.07l.41.12s0-.06.07-.07Z"/><path class="cls-1" d="M109.19,114.12l.48,0C109.46,114.12,109.27,114.07,109.19,114.12Z"/><path class="cls-1" d="M110.67,114.29l-1-.12A1.9,1.9,0,0,0,110.67,114.29Z"/><path class="cls-1" d="M97.27,111.33l-.17.18A.28.28,0,0,0,97.27,111.33Z"/><path class="cls-1" d="M93.74,110.76a20.29,20.29,0,0,0,3.22.89l.14-.14C96.5,111.71,94.6,110.55,93.74,110.76Z"/><path class="cls-1" d="M79.15,106.38l3,.46c-.51-.27-1.18-.63.21-.55C78.61,105.27,83.1,106.86,79.15,106.38Z"/><path class="cls-1" d="M69.77,105.48c1.64,0,0-.31.08-.43C68.81,105.2,68.56,105.24,69.77,105.48Z"/><path class="cls-1" d="M34.52,133.08l-.44.31C35.18,134.11,34.21,133.24,34.52,133.08Z"/><polygon class="cls-1" points="46.88 137.93 46.02 137 45.28 137.09 46.88 137.93"/><polygon class="cls-1" points="51.36 145.11 50.86 144.88 52.72 145.84 51.36 145.11"/><path class="cls-1" d="M100.41,101.5l-.54.51C100.15,102.82,100.88,102.85,100.41,101.5Z"/><path class="cls-1" d="M85,54.62A4,4,0,0,0,84.09,52C84.5,53,84.71,54.13,85,54.62Z"/><polygon class="cls-1" points="20.96 91.55 21.02 90.54 20.69 92.39 20.96 91.55"/><path class="cls-1" d="M346.5,145.23c.23-.28-.08-.57-.85-.18l-.32.84Z"/><path class="cls-1" d="M340.69,146.26c-.82.67-1.69,1.63-.86,2,.69-1,1-.81,1.73-1.91.77-.4,1.47-.37,1.43-.09.22-.27,1.29-.36,1.56-.92a5.79,5.79,0,0,0-3.76,1.4C340.44,146.67,340.66,146.4,340.69,146.26Z"/><path class="cls-1" d="M263,178.06l.52-.18A2.49,2.49,0,0,0,263,178.06Z"/><path class="cls-1" d="M218.91,205.81c.29-.27.38-.42.36-.48C219,205.6,218.8,205.82,218.91,205.81Z"/><path class="cls-1" d="M211.68,211.16l.42-.33A.86.86,0,0,0,211.68,211.16Z"/><path class="cls-1" d="M263,178.06l-1.33.44C261.69,178.74,262.39,178.32,263,178.06Z"/><path class="cls-1" d="M330.53,152a3.26,3.26,0,0,0,.64-.44l-.64.33Z"/><path class="cls-1" d="M283.57,167.78l.38-.17a2.16,2.16,0,0,0,.22-.39Z"/><path class="cls-1" d="M299.75,160.8c-.38.13-.29.7-.34,1a1.36,1.36,0,0,1,.66-.68A.62.62,0,0,0,299.75,160.8Z"/><path class="cls-1" d="M326,151.36l.43-.25Z"/><path class="cls-1" d="M272,172.91a.41.41,0,0,0-.23-.11C271.83,172.86,271.92,172.89,272,172.91Z"/><path class="cls-1" d="M143.92,122.65s.06,0,.09,0S143.87,122.51,143.92,122.65Z"/><path class="cls-1" d="M148.11,102.22l-.11.26a1,1,0,0,0,.24.21Z"/><path class="cls-1" d="M199.6,222.4l.05-.05C199.9,222,199.74,222.18,199.6,222.4Z"/><path class="cls-1" d="M239,263c-.71,1.62-.3-2.84-1.16-.37C238.11,262.42,238.35,265.05,239,263Z"/><path class="cls-1" d="M330.08,152.13c-.22.09-.44.19-.67.27A4.11,4.11,0,0,0,330.08,152.13Z"/><path class="cls-1" d="M237.84,262.63h0l-.08.25Z"/><path class="cls-1" d="M180.66,255.63a1.09,1.09,0,0,0,.33-.32C180.93,255.31,180.84,255.38,180.66,255.63Z"/><path class="cls-1" d="M194.37,230.67l-.48.52A5.13,5.13,0,0,0,194.37,230.67Z"/><path class="cls-1" d="M179.75,270.67a3.22,3.22,0,0,0,0,1.06.67.67,0,0,0,.06-.17A1.48,1.48,0,0,1,179.75,270.67Z"/><path class="cls-1" d="M184.1,285.74c0-.1,0-.21,0-.32l-.28-.42Z"/><path class="cls-1" d="M183.74,143a2.46,2.46,0,0,1-.87-.28C183.23,143,181,143.84,183.74,143Z"/><path class="cls-1" d="M330.4,151.74a.55.55,0,0,1-.32.39l.45-.21C330.54,151.82,330.52,151.75,330.4,151.74Z"/><path class="cls-1" d="M184.22,271c.05.74,0,1.49.12,2.22C184.26,272.6,184.3,271.78,184.22,271Z"/><path class="cls-1" d="M229.18,162.53,229,162A1.26,1.26,0,0,0,229.18,162.53Z"/><path class="cls-1" d="M185.93,279.44a4.26,4.26,0,0,0,.1,1.28.89.89,0,0,0,.24.17C186.14,280.41,186.05,279.92,185.93,279.44Z"/><path class="cls-1" d="M182.86,142.73h0Z"/><path class="cls-1" d="M165.92,144.43c1.24.36,1.57.23,1.67,0s0-.54.27-.7c1.46.19,1.78.36,1.85.58s-.12.48.37.73c1.93.06,3.39-.64,4.72-.69.1.11.37.14.07.31a7.66,7.66,0,0,1,1.72-.35c.66-.06,1.37-.25,2.09-.37s1.45-.26,2.12-.46a8.3,8.3,0,0,0,1.74-.86.56.56,0,0,1,.32.1,1.08,1.08,0,0,1-.61-.88c1-.3,1.72-1,2.24-.7-.6.23-.59.43-.83.65a8,8,0,0,0,1-.58c.58.14.25.34-.21.57s-1.07.38-1,.64c2-.9,4.11-2.41,5.62-3.07.32.22-.52.73-1.15,1.12a7,7,0,0,0-.65.42c-.06.07.14.13.7,0-.82.31-1.68.52-2.51.78,2.26.24-1.52.54.63.9.83-.29,1.47-.54,2-.79s.92-.56,1.34-.83c.81-.55,1.67-1,3.15-1.93.44-.75-.52-.33-.08-1.07a10.48,10.48,0,0,1,1.22-1,7.33,7.33,0,0,1,.94-.63,5.12,5.12,0,0,1,1.47-.52,4,4,0,0,0,1.28-.42,4.63,4.63,0,0,0,1.33-1.5c.35-1,.05-1.76,2-3.36v1.16c2.27-2.46.44-2.09,2.9-4.53-.12.67-1.34,2.23-1,1.89,1.82-1.45.61-1.53,1.6-2.92l.76.08a49.73,49.73,0,0,0,4.42-10.37c.12.27.11,1,.59.19l.32-1.21a2.29,2.29,0,0,0,.08-.33l0-.19.2-.77a3.67,3.67,0,0,1,.36-.94l0,0s.07.2.1.29l.19.6c.12.39.21.75.29,1A1,1,0,0,1,212,114c.08.17,0,.65-.08.7.07.4.11.27.17,0s.1-.61.24-.58c.24.4,0,.88-.14.88a2.53,2.53,0,0,1,.72.63,1,1,0,0,1,.13.18l.19.34.39.71.77,1.46a26.56,26.56,0,0,1,2.26,5.67l-.41-.52c.8,2.4,2.24,2.17,2.58,4.57l-.26-.38c.88,2.62,2,5.29,3,7.84a39.13,39.13,0,0,1,1.88,7.18c.53.25.88,1.57,1.25,2.82S225.37,148,226,148c.34,3.19-.12,2.39.76,6.73.29,1.14,1.21,1.48,1.68,2.87l-.59.2,1.11,1.76-.45,1.2L229,162c-.09-.54,0-1.19.18-1.15.8,2,.86,5.16.57,5.28.55,1.6,1,3.22,1.56,4.83-.26-.06-.52-.87-.81-1.49,1.17,2.51-.54.61.53,2.91.07-.35.4.1.53.13a12.2,12.2,0,0,0,.26,2.75c.22,1.09.49,2.28.72,3.29l-.48-.31c.26,1.85.63,3.79,1,5.78s.84,4,1.06,6.14c0-1.53.78-1.29,1-.07l-.59.58c.5.74.09-1.32.78.25.12,1.57-.6,1.14-.93.28l.47,1.86c-.18.14-.34-.29-.6-.38.5.73-.23,3.35.6,4.39l-.17.12c.44,4.18.76,6.06,1.1,9.47.57,0,.56,1.37,1.1,2.36-.07,2.54-.39,5.35-.21,8.38.38,2.12.51.61.89,1.56-.47.17-.43,3.2-.8,1.64.09,3.64.12,4.64.55,9.26.21-.5.3-1.06.47-.77.1.85-.22,1.91-.47,1.78l0-.22a34.08,34.08,0,0,1-.64,8.42l-.31,2.09c-.13.68-.23,1.35-.31,2a12.55,12.55,0,0,0,0,3.52l0-.23.22,4.31c-.25,1.95-.29-1.21-.73.21.37,4.67-1,7.2-.85,11-.94,1.35-1.37,3.91-1.7,6.62s-.64,5.58-1.54,7.37l.39-.15c.13,1.06-.45,1.15-.7,1.84.3,0,.56-1,.61-.33a30.49,30.49,0,0,1-4.48,11.77,17.94,17.94,0,0,1-9.06,7.08,4.4,4.4,0,0,0-1.31.69c-.27.24-.43.52-.64.74-.4.44-1,.91-2.88.65a12,12,0,0,0,1-.77,12.88,12.88,0,0,1-4.4.41,19.46,19.46,0,0,1-4.5-.82,48.61,48.61,0,0,1-8.45-3.61c.39.07.5-.09,1,.22a9.54,9.54,0,0,0-2.26-1.7c-.85-.53-1.67-.9-1.79-.77-.69-.66.06-.42-.24-.94A6.9,6.9,0,0,0,192,289c-.59-.43-1.11-.85-1.16-1.25,0-.13.36.16.54.3a9,9,0,0,1-1.48-1.52c-.49-.58-.85-1-.85-.51-1.12-1.94-2.57-3.48-3-5.25a4.33,4.33,0,0,1-1-2.15c-.26-.82-.4-1.55-.88-1.63.23,0,.33-.27.34-.66a8.26,8.26,0,0,0-.11-1.54,15.58,15.58,0,0,0-.39-1.8,11.1,11.1,0,0,0-.38-1.46c.31.46.19-1.27.61-.73,0-.41-.08-.81-.13-1.17s0-.7-.1-1c-.1-.55-.25-.86-.49-.71a12.19,12.19,0,0,0,.43-4.43c0-1.38.11-2.62.91-3.33a46.35,46.35,0,0,1,3.66-13.7c.37.27-.12,1.42-.6,2.54s-.83,2.22-.37,2.3c1.26-4.08,1.69-6.71,4.07-10.34.66-.9,0,.75,0,1.15,1.85-4,4.51-7.06,6.48-10.43.06.06-.11.45-.3.81.44-.64,1.17-1.35.8-1.52-.13.21-.24.44-.36.66-1.24.61.9-3.18.76-3.48.05.89.7.17,1.34-.43s1.27-1.09,1.17.18c.27-.43.53-1,.24-1.13.55-.52.82-.6.57.18A10.71,10.71,0,0,0,203.4,225a5.43,5.43,0,0,1,1.22-1.65c.14.14-.15.56-.15.9a11.11,11.11,0,0,1,2.74-3.81c0,.18.28.11-.16.56a25.5,25.5,0,0,0,1.63-2c.48-.67.94-1.32,1.46-1.93a23.24,23.24,0,0,1,3.72-3.7c-.28,1.44,1.19-.72,1.84-.31l1.42-1.62-.87.31c.67-.65,1.28-1.31,1.87-1.93A9.23,9.23,0,0,1,220,208.2l-.88,1.12,2.63-2.35L220,208c1.23-1.51-.76-.59,1.31-2-.34.39,1.47-1.2,2.5-1.48h0a6.78,6.78,0,0,1,2.44-2.23c.44,0,.27.83.55.81.37-1,3.45-2.75,4-4-.23.36,0,.69.14.68l.33-.88c.79-.38.94-.39,1,0,2.2-1.45-1.26-.34,1.57-1.74-.18.17,0,.16-.42.51,2.74-1.55,4.88-3.62,7.43-5,1.11.17-2,1.55-.85,1.54l5.15-3.75a46.73,46.73,0,0,1,5.26-3.43l-.69.31c-.06-1.22,2.88-1,4.42-2.42-.4.31-.29.83-.23.66,2.51-1.15,4.78-3,8.38-5.14l-.33.47c1.56-.52,3.88-1.81,5.5-2.49.35-.48,1.26-.89.55-1a21,21,0,0,0,7.19-3,18.62,18.62,0,0,1,6.74-2.93c-.53.23-1.16.77-.74.59l3.65-1.9c-.49-.29-.61,0-1.54,0a6.91,6.91,0,0,1,2.27-1.54c-1.57,1,.31.67,1.14.58-.18-.07,0-.33-.11-.43,2.28-.11-.05-1,2.87-1.64l0,.28a18.23,18.23,0,0,1,2.88-1.63c.66.3-1,.69-.87,1.12,1.51-.67,2.62-2.21,4.21-2.3-.59.41-1.53.81-2.12,1.22a7.24,7.24,0,0,0,3-.66l-.11,0,2.7-.81-.73.11c1.39-2.07,3.82-1.83,6.06-3.74-2.19,1.83-.22.64-.19,1.28.72-.12,1.8-.35,1.58-.08,1-1,2.18-.47,3.65-1.82.15.15,1.32-.51,1.23,0,1.54-.77-.51-.16-.46-.44,2.21-1.6,6.08-1.56,9.29-3.81,2.92-1.56,3.24-2.39,6-3.82,1.08-.09-.52,1-.52,1a13.24,13.24,0,0,0,4.17-1.63c-.23.27.12.28.65.31,1.15-.51.52-1,2.16-1.31a4.18,4.18,0,0,1-.87,1.19c1.31-.71,2.53-1.59,3.89-2.32.51.17-.67.82-1.09,1.23,1.55-.78,4-1.94,4.33-2.64l-1.09.23c.57-.25.47.31.07.58-1.21.94-2,.61-2.19.46l1-.52c-1.46-.65-4,1.79-6.07,2.54l.54-1.11-1.84,1.47c-.53,0-1-.34,0-.85-1.61.19-1.19.79-2.61.86-.17,0-.12-.08,0-.16l-1.35.8c.22-.28-.45-.45.47-.69-2.74.57-3.91,2.22-5.11,2l.19-.13c-3.46,1.67-.12.7-2.53,2.43l-2.35-.69-.13.71c-.37.12-1.12.37-1.07.09-1.22.93.33.15-.32.84-2,.19-4.78,2.18-5.54,1.44-.46.68,1.83-.34.06.71-.93-.76-2.12,1-3.91,1.25.29-.7,1.93-1.06.14-.84-.63,1.24-3.22,1.09-4.51,1.81.21.7-2.85,1.46-5,2.66.05-.28-4.43,1.44-6.65,2.1l0-.14c-.12.84-2.35,1.65-3.86,2.5-.11-.43.1-.72.87-1.28l-1.48.67a4.26,4.26,0,0,1-1.59,1.19l.15-.67c-2,.92-3.72,2.33-6.38,3.17.07.53,2.58.36.08,1.92-.21-.21-.51-.59.14-1a4,4,0,0,1-1.22.7L276,172c-1.23.35-.44.63-1.37,1-.15-.36-.79.07-.79-.28.21-.14.86-.23,1.15-.53a8.35,8.35,0,0,1-3,.72c.19.16.23.48-.5.88-1.94,1-.88-.11-2.11.24-.35.47-1.72.81-1.49,1.35a1.28,1.28,0,0,1-1.08.05c-.89.74-4.63,2.43-3.23,2.42l.28-.09-.15.1h0a25.37,25.37,0,0,1-5,2.62,40.37,40.37,0,0,0-5,2.54l-.09-.17c-1.79,1.26-4.2,2.39-5.29,3.59-.55.33-1.48.47-1.37.12a12.33,12.33,0,0,1-3.61,2.22c1.25-1.15-.66,0,1.33-1.09-1.94,1-2.53.95-4.23,2.6.21-.42-.23-.35-.81-.08a9,9,0,0,0-1.67,1.12l1.46-.54a29.59,29.59,0,0,1-2.67,1.75l.1-.86a17.86,17.86,0,0,0-5,3.53c-1.4,1.26-2.63,2.51-4.4,2.94-.67,1.08,2.13-1.16,1.61-.09-1.69,1.13-4,1.62-4.49,2a4.61,4.61,0,0,0-2,1.87,5.48,5.48,0,0,1-1.92,2.11c.44-.06,1.1.22-.43,1.77-1.62,1.22-2.57.83-1.69-.14.36-.33.59-.42.63-.34.45-.49,1-1.12.27-.8l-.06.35c-.93.46-3.09,2.27-2.83,1.55-1.05,1.16-.25.72.71.08a21,21,0,0,0-2.7,2,33.41,33.41,0,0,1-2.56,2.29c.4-.2.88-.26.56,0-3.09,2.48-1,1.52-2.84,3.42-1.37.77-.21-1-2,1.06-1.35,1-.7-.21-.35-.79-1.45,2-3.4,3.13-4.45,4.09l.76-1.08a15.27,15.27,0,0,1-1.34,1.59l.85-.22c-.58.5-1,1-1.16.83-.31.78,1,.09.24,1.52-.86.59-1.93,2.4-2.61,2.28,2.31-2.23-.73-.17,1-2.22a8.24,8.24,0,0,1-1.32,1.4c-.13,0,0-.17.09-.34-2.44,2-.4,1.53-2.44,4,0-.55-1,.15-1.26.61.81-1,.85-.11.33,1-1.5,1.41-1.18,1.88-1.86,2.71l.83-.9c0,.55-.6,1.33-1.36,2.53-.29-.06.62-1.14.22-.81a5.17,5.17,0,0,1-1.56,2.14,7.08,7.08,0,0,0-1.89,2.48c-.75.73-.62-.28-1.24.4-1,2.32-1.81,2.07-2.82,4.52.82-.41.73-.6.28,1.25.55-1.33,1.22-2.6,1.83-3.9l-.78,2.72c.65-1.1,1.09-2.51,1.57-3.12-.35,1.31-.36,1.15.28.82-1.49,1.16-1.41,3.19-2.73,4.77l-1-.6a11.91,11.91,0,0,0-1.86,4c-.24.71-.45,1.46-.69,2.27a23,23,0,0,1-1,2.57c.19-.39.43-.76.65-1.14.21.65-.77,2.36-1,3.66-.33-.23-.74.49-1.12,1,.3,0-.75,2.9-.07,3.42l-.82,1.67a7.72,7.72,0,0,0-.26,2,9.36,9.36,0,0,0,.24,1.51,12.14,12.14,0,0,1,.31,3.39c-.41-1-.74.47-1-1.67-.07,1.06-.12,2,.14,2a5,5,0,0,0,.11,1.81,5.2,5.2,0,0,1,.17,2.07,2.68,2.68,0,0,1,.69,1.7c-.06.14-.2,0-.2,0,.2,0,.57,1.77.83.71a9.43,9.43,0,0,0,0,2.83A17.13,17.13,0,0,0,182,280a45.43,45.43,0,0,1,2.08,5.44A39.28,39.28,0,0,0,188.6,291c-.18,0-.15.13-.39-.19a2.81,2.81,0,0,0,1.92,1.43,3.86,3.86,0,0,1,2.19,1.49c.45.75.06.56-.37.27s-.84-.7-.53-.27c-.26.65.55,1.26,1.59,1.91.52.32,1.11.63,1.65,1a5.78,5.78,0,0,1,1.43,1.18l-.49-.22c1.24,1.28,3.85,1.66,6.39,2.68,0,0-.16.06-.08.18,2,.08,5.48.75,8.11.72-.85.43-1.22.16-.76.72.6,0,.53-.2.61-.41s.3-.38,1.46-.44c.74.34,2.46.46,2.75,1-.76.07-1.53.13-2.29.13a3,3,0,0,0,2.1.2,17.36,17.36,0,0,1,2.08-.46l-.1.34a9.79,9.79,0,0,0,3.4-1.37,14.71,14.71,0,0,1,1.32-.81c.5-.32,1.14-.64,1.95-1.1h-.45a2.5,2.5,0,0,1,1.5-1.11,2.48,2.48,0,0,0,1.47-1.11l1,.18a20.25,20.25,0,0,0,1.89-2.6c.72-1.1,1.36-2.38,1.92-3.41-.15,1.46-1.61,3.93-2.68,5.42a17.94,17.94,0,0,0,1.88-2.24,5.91,5.91,0,0,0,1.09-2.17,4.47,4.47,0,0,1-.88,1.53,49.28,49.28,0,0,1,2.4-6c.6.53,1.42-1,2.11-2.87s1.3-4.06,2.1-4.83c.56-4.59,1.94-8.78,2.72-14-1.47,1.66.22-1.51-1-1.38a5.57,5.57,0,0,1,.29-1.76l1.17-3.57c.46-.82.13,1.19.41,1.11.42-2.64.65-1.05,1.19-2.77-.48.31-.51-1-.16-2.5l-.82,2.07a6.24,6.24,0,0,1,.6-3.44,5.67,5.67,0,0,0,.52-3.48l.29,1.23c-.07-1.95.57-7.14-.26-9.09.17-.33.54-.76.56.1a56.43,56.43,0,0,0-.08-7.34,36.45,36.45,0,0,1,.11-6.55l.3.35c-.09-.86-.57-1.5-.27-2.58.12.06.3.35.31,0a11.51,11.51,0,0,1-.36-3.43l.34,1c.43-4.52-1-6.89-1.33-10.64.86,0,1-3.6,1-5.37l.12,0a51.56,51.56,0,0,0-1-7c-.22-1.07-.42-2.14-.67-3.22s-.52-2.21-.76-3.4a28.37,28.37,0,0,0-.24-6.87c-.39-2.76-.91-5.72-1-8.17,0,.76-.7,0-.93-.83a7.65,7.65,0,0,0-.46-1.92c-.2-.59-.29-1,.13-1l.07.4c.6-1-.09-3.24-.44-5l-1.1-.08c.64-5-3.44-12-2.71-14.89-.51-1-1-2.41-1.53-3.43l.57-.1a79.22,79.22,0,0,0-2.44-8.4c.21.22.44.43.64.65-.67-2.14-2.46-2.17-3.15-4.09l.61-.85c-.64-1.84-1.09-3.75-1.65-5.62a24.39,24.39,0,0,0-2.39-5.31c.14,0,.41,0,.67.61-.64-1.72-2-6.83-2.9-5.75.68-.33-1.54-3.7-2.68-5.48l.64.07a9.64,9.64,0,0,1-2.72-3.47c-.09-.28-.1-.55,0-.52s.12.07.2.19a1.55,1.55,0,0,1,.17.44,5,5,0,0,0-.55-1.26,5.72,5.72,0,0,0-.54-.74,7,7,0,0,1-1.31-2.42c.23.2.47.43.73.68-1.23-2.61-1.25-2.21-2-2.78a15,15,0,0,1-1.35-2.88,23.6,23.6,0,0,1-1.08-3.57c0,.2-.17.28-.33.2a1,1,0,0,1-.28-.22.83.83,0,0,1-.22.28,4.51,4.51,0,0,1-.13.74,8.45,8.45,0,0,1-.09-2,62.13,62.13,0,0,0-.88,6.56c-.11,1-.2,1.89-.34,2.69-.07.41-.14.79-.24,1.18a10.25,10.25,0,0,1-.43,1.06c-.17,0-.31.13-.45.38a21.43,21.43,0,0,0,.7-3l.46-2.52a18.83,18.83,0,0,1,.39-2c-.17-.62-.43,0-.66.28s-.42.25-.38-2.38c-.18,2.33-.3,5.38-.55,7.74-.09.55-.14,1.12-.27,1.61l-.3,1.26a6.4,6.4,0,0,1-.51,1.53.93.93,0,0,1-.26.18l0-.21a3.78,3.78,0,0,0-.41,1.18,12.73,12.73,0,0,0-.77,1.45c-.44.06-1.26,2-1.72,2.86.53.2-.17,1.34.82.46-.11.12,0-.21.32-.83,0-.14.13-.31.15-.41v.08c.27-.61.74-1.37,1.08-2.3a3.79,3.79,0,0,1-1,2.6,16.71,16.71,0,0,1,.14,1.72c-1.45.85-3.21,2.91-3.88,2.88-1.44,2.81-4.52,5.65-5.26,7.8-.6.68-1,.42-1.36.5.33-.41.82-.76.92-1.07-.58.68-1.6,1.51-2.44,2.3s-1.64,1.37-1.61,1.81c-2.08,1,.71-1.23-1.85.49l.25-.39a15.76,15.76,0,0,0-2,.78c-.31.15-.61.3-.9.47s-.59.26-.88.41c-1.15.57-2.2,1.29-3.38,1.79-.58.28-1.17.56-1.78.82s-1.29.37-2,.51a11.26,11.26,0,0,1-4.59,0c.46.06.7.1.79.21a30.51,30.51,0,0,1-11.27-2.49,21.33,21.33,0,0,1-9-7.22c-1.24-1.74-1.71-1.64-2.8-2.5l.23-.73c-.62-.47-1.21-1-1.8-1.52a8.49,8.49,0,0,1-1.6-4.2,17.5,17.5,0,0,0-1.36-4.85l-.3.59c0-.36-.14-.82-.24-1.3s-.16-1-.23-1.47c-.1-.93-.07-1.66.16-1.55a1,1,0,0,1-.22-1l.32,0a14.73,14.73,0,0,1-.17-1.77,15.25,15.25,0,0,1,0-1.79c.37-1.34.72-1.13,1-1.12s.3,0,.48-.27a10.19,10.19,0,0,0,.74-1.61c.07-.35.2-.75.29-1.19s.17-.9.27-1.29c.17-.79.22-1.41,0-1.22-.31.51-.93,1.24-1.23,1.14l.54-1.3c-.34-.35-.57-.9-1-1s-1.14.2-2.28,1.81c-.09.45-.2.89-.28,1.34l-.18,1.35a8.84,8.84,0,0,0-.68.69c.17-.74.46-1.44.7-2.16a3.35,3.35,0,0,0-.7,1.51,8.33,8.33,0,0,0,0,1.41,1.71,1.71,0,0,0-.74,1l.21,1.38c.08.46.2.9.3,1.34-.39.29-.61-1.25-1,.51.36,1.25.85-1.1,1.06.9-.45,1.23-.8.9-.36,2.35-.23.23-.4-.07-.54-.67.3,1.33.47,3.5,1.1,4.07a6.88,6.88,0,0,0,.39,2.64c.28.88.46,1.6,0,1.69a20.09,20.09,0,0,1,2,2.94c-.92-.77-.53.28.1,1.45s1.39,2.48.75,2.55a13,13,0,0,1,2.78,2.82,17.43,17.43,0,0,0,3.47,3.32,1.21,1.21,0,0,1-.65-.37c1.11,1.17,1.26,1.7,2,2.5.65-.45,2.72,1,4.11,1.23,1.23,1.71-1.49.12-1.39,1.06.15-.3.94.07,1.7.34s1.44.51,1.28.11c1.11,1.12,1.05.79,1.47,1.73.65-.78,1.37.45,2.78.31,1.92,1.16.24,1.1,2.69,1.47.53.29.25.39-.17.4A7.17,7.17,0,0,1,165.92,144.43Zm43.35-28.63h0c-.12.46-.29.82-.37,1.07A10.84,10.84,0,0,0,209.27,115.8Zm.9-3c-.09.26-.16.63-.29,1a.38.38,0,0,1-.23-.54C209.72,113.53,210,113,210.17,112.82Zm-6.43,6c.23-.63.45-.78.58-.82l-.47,1.08s0,.07,0,.1A.75.75,0,0,1,203.74,118.82Z"/><path class="cls-1" d="M203.84,120.23c0,.1,0,.16-.09.27l.29-.3,0-.3Z"/><path class="cls-1" d="M263.62,177.85l-.09,0a.9.9,0,0,1,.22,0C263.68,177.87,263.67,177.85,263.62,177.85Z"/><polygon class="cls-1" points="227.7 157.81 227.84 157.77 227.63 157.43 227.7 157.81"/><path class="cls-1" d="M286.77,169.15a.62.62,0,0,0,.35,0A.84.84,0,0,0,286.77,169.15Z"/><path class="cls-1" d="M296.6,165.11l1.46-.4A13.72,13.72,0,0,0,296.6,165.11Z"/><path class="cls-1" d="M304.27,162.26a.58.58,0,0,0,.06-.28h0Z"/><path class="cls-1" d="M197.72,232.47a2.63,2.63,0,0,0-.16.26C197.21,233.38,197.47,233,197.72,232.47Z"/><path class="cls-1" d="M223.84,204.51a12.23,12.23,0,0,1-.79,1C223.6,205.1,224,204.77,223.84,204.51Z"/><path class="cls-1" d="M184.21,270.75h0l0,.24Z"/><path class="cls-1" d="M221.66,206.64a5.66,5.66,0,0,0,1.39-1.14A8.87,8.87,0,0,0,221.66,206.64Z"/><path class="cls-1" d="M337.34,149.39l.37-.13a.09.09,0,0,1,0-.1Z"/><path class="cls-1" d="M337.72,149.16l.39-.23C337.92,149,337.76,149.08,337.72,149.16Z"/><path class="cls-1" d="M338.91,148.45l-.8.48C338.4,148.81,338.78,148.68,338.91,148.45Z"/><path class="cls-1" d="M327.16,153.14l0,.24A.29.29,0,0,0,327.16,153.14Z"/><path class="cls-1" d="M324.12,154.4a14.56,14.56,0,0,0,3-.84l0-.18C326.75,153.85,324.69,153.81,324.12,154.4Z"/><path class="cls-1" d="M310.41,157.13l2.62-.87c-.53,0-1.23-.06-.08-.57C309.48,156.37,313.8,155.87,310.41,157.13Z"/><path class="cls-1" d="M302.34,160.05c1.34-.66-.13-.29-.11-.43C301.44,160.16,301.24,160.29,302.34,160.05Z"/><path class="cls-1" d="M246.39,186.71l-.13-.52C245.31,186.85,246.35,186.37,246.39,186.71Z"/><polygon class="cls-1" points="237.75 195.21 238.85 194.86 239.03 194.18 237.75 195.21"/><polygon class="cls-1" points="229.9 196.11 230.26 195.75 228.81 197.04 229.9 196.11"/><path class="cls-1" d="M182.32,283.46l.4-.6C182.27,282.18,181.54,282.3,182.32,283.46Z"/><path class="cls-1" d="M222.35,299.45a3.44,3.44,0,0,0,2.4-1.33C223.86,298.79,222.76,299.08,222.35,299.45Z"/><polygon class="cls-1" points="235.41 168.17 235.81 169.02 235.28 167.38 235.41 168.17"/><path class="cls-1" d="M331.36,144.14c.12-.16.13-.55-.13-.53l-.3.62Z"/><path class="cls-1" d="M329.9,142.59a1.58,1.58,0,0,0-.75,1.37c.43-.56.45-.29.91-1,.26,0,.39.3.31.53.12-.15.36.22.57-.16-.23-.57-.63-.67-1.14-.34C329.73,142.85,329.86,142.7,329.9,142.59Z"/><path class="cls-1" d="M310.21,129.51l0,.17A.32.32,0,0,0,310.21,129.51Z"/><path class="cls-1" d="M304.84,115.9a.15.15,0,0,0,.17.13C304.94,115.94,304.9,115.86,304.84,115.9Z"/><path class="cls-1" d="M305.13,113.3c0,.06,0,.1,0,.15S305.19,113.33,305.13,113.3Z"/><path class="cls-1" d="M310.21,129.51l-.06-.44C310,129.17,310.13,129.33,310.21,129.51Z"/><path class="cls-1" d="M326.17,143.31a.62.62,0,0,0,.27-.11.89.89,0,0,1-.23,0Z"/><path class="cls-1" d="M314.91,133.89l.1.08.25-.15Z"/><path class="cls-1" d="M318.92,136.68c-.08-.07-.41.39-.58.58a.56.56,0,0,1,.42-.21A1.93,1.93,0,0,0,318.92,136.68Z"/><path class="cls-1" d="M325.71,140.81l.16,0Z"/><path class="cls-1" d="M312.53,131.35a.77.77,0,0,0,.12-.17A.66.66,0,0,0,312.53,131.35Z"/><path class="cls-1" d="M289.71,104.63a.3.3,0,0,0,0,.1C289.75,104.67,289.76,104.63,289.71,104.63Z"/><path class="cls-1" d="M296,107.15l-.08,0a1.73,1.73,0,0,0,0,.32Z"/><path class="cls-1" d="M300.12,116.43v0C300.06,116.29,300.07,116.36,300.12,116.43Z"/><path class="cls-1" d="M282.49,149.5c.27.18.15.39,0,.59s-.2.39.2.59C282.63,150.48,283.1,149.65,282.49,149.5Z"/><path class="cls-1" d="M326.06,143.2l-.22,0A.4.4,0,0,0,326.06,143.2Z"/><path class="cls-1" d="M282.73,150.68h0l.09,0Z"/><path class="cls-1" d="M299.76,126.83a.71.71,0,0,0,.26-.06A.69.69,0,0,0,299.76,126.83Z"/><path class="cls-1" d="M301.27,119.17l-.08.19A.3.3,0,0,0,301.27,119.17Z"/><path class="cls-1" d="M299.53,130.91c-.07.09-.16.1-.13.26l.08,0C299.42,131.07,299.41,131,299.53,130.91Z"/><path class="cls-1" d="M298.07,134.92a.5.5,0,0,0,.13,0l0-.13Z"/><path class="cls-1" d="M276.26,109.28a1.65,1.65,0,0,1,.43.35C276.44,109.31,277,108.86,276.26,109.28Z"/><path class="cls-1" d="M326.25,143c-.06.12-.12.18-.19.19h.15A.26.26,0,0,0,326.25,143Z"/><path class="cls-1" d="M303.7,132.42l-.31.68A2.68,2.68,0,0,0,303.7,132.42Z"/><path class="cls-1" d="M259.43,136.75l-.09-.16A.15.15,0,0,0,259.43,136.75Z"/><path class="cls-1" d="M302.73,135.19a1.1,1.1,0,0,0-.52.25,1.27,1.27,0,0,0,.11.13Z"/><path class="cls-1" d="M276.7,109.63h0Z"/><path class="cls-1" d="M280.62,106.38c-.69.25-.06.8,0,1.24-.7.5-.57-.36-1-.6-.42.39-.52,1.19-.88,1.32-.08-.1-.17-.11-.15-.28-.13.38-.5.56-.88.76a1.51,1.51,0,0,0-.83.93.3.3,0,0,1-.16-.12,3.34,3.34,0,0,1,.56.85c-.27.16-.28.68-.62.31.18-.08.1-.26.1-.43l-.18.33c-.59-.47.27-.41,0-.87-.47.49-.81,1.36-1.32,1.45-.43-.53.86-.79,0-1,.26-.06.52-.12.79-.16-1-.66.44-.15-.59-.9-1,.34-.81.88-1.78,1.24,0,.43.36.43.37.86-.8,1.33-1.88-.79-2.25.55,0,.53.46,1.27-.39,1.36l-.26-.77c-.83.54.23,1.22-.89,1.43,0-.34.45-.67.27-.65-.9-.06-.09.63-.49.94l-.51-.46c-.72.79-1.28,1.87-2,2.78-.1-.19-.11-.48-.44-.44a8.19,8.19,0,0,1-1.56,1.67c-.6.5-1.27.93-1.86,1.38l.13.79c-.09.09-.36,0-.36-.16-.52.3.27.25.29.6a.29.29,0,0,1-.54-.14,10.61,10.61,0,0,1-.55,2,4.1,4.1,0,0,1-.51.92,2.57,2.57,0,0,1-.63.71l-.07-.27c-.58.67.7,1.35-.12,1.81l0-.17a4,4,0,0,0-.54,1.24l-.39,1.29a5.31,5.31,0,0,1-1,2.25c.74.36-.56,1.75.62,1.95a7.53,7.53,0,0,1-.72.89,2.42,2.42,0,0,0-.49,1.26c0,.4.77.55.92,1l-.61.07.68.57-.68.44.24.42a.45.45,0,0,1,.39-.41,1.6,1.6,0,0,1-.44,1.83,14.14,14.14,0,0,0,.93,1.48c-.25,0-.41-.21-.62-.38.85.68-.58.33.21,1,.1-.14.36,0,.49-.07a1.54,1.54,0,0,0,0,1,3.66,3.66,0,0,0,.52,1l-.45,0a7.7,7.7,0,0,0,.87,1.78c.39.56.81,1.13,1.16,1.74-.09-.54.6-.82.86-.52l-.47.49c.47,0,0-.48.68-.31.24.45-.41.7-.76.57l.56.38c-.14.14-.31.08-.54.19.48,0,.15,1.3.94,1.18l-.13.15a6.67,6.67,0,0,0,1.23,1.22c.39.31.74.6,1.17,1,.4-.4.66,0,1.22-.16.52.65,1,1.63,1.9,2.08.76.13.42-.3.86-.42-.21.46.68.94.05,1a5.56,5.56,0,0,0,1.35.5,13.79,13.79,0,0,0,1.67.29c-.08-.26-.21-.42-.07-.55a.52.52,0,0,1,.39.63l-.08,0c.93-.16,1.74.47,2.62,1s1.84.91,2.56.35l-.08,0c.49-.18,1-.34,1.43-.54.65,0-.37.42.12.69a3.26,3.26,0,0,1,1.94-.52,2.92,2.92,0,0,0,1.68-.45c.64.59,1.53.33,2.36-.07a4.4,4.4,0,0,1,2.43-.81l-.23-.29c.15-.46.46,0,.72,0-.16-.22-.47-.11-.38-.38a33.65,33.65,0,0,1,3.75-2.22c.66-.35,1.29-.74,1.95-1.12s1.24-.85,1.81-1.32c.8-.74-1-1.68.55-2.1l.26.71a12.5,12.5,0,0,1,1.67-2.81,7.24,7.24,0,0,0,1.41-2.86c.09.19.26.28.15.46.65-.16.76-1.47.41-1.63.18-.27.35.09.62,0,.46-.3-.14-1.21.4-1.22.08,0,.09.16.1.25-.11-.34.55-1.14-.06-1.11.53-.58.31-1.39.82-1.82-.43-.58.74-1.09,0-1.51.84.37,1.13-1,.87-1.57.21.23.4-.31.7,0,.15-.53.13-1.06-.34-1.1,1.33-.68-.32-2.15,1.15-2.38-.12-1.71-.22-3.23-.27-4.67.9.15-.11,1.59.84,1.66-.19-1.44-.87-2.29-.57-3.6.15-.34.38.22.53.35-.27-1.38.2-2.63-.28-3.83.09,0,.18.13.25.26,0-.24.13-.55-.28-.52l.11.22c-.59.37-1.25-.92-1.56-.95,1.18.38.28-1.16,1.78-.56a.55.55,0,0,0-.55-.3c.07-.22.23-.3.55-.08-.24-.81-.67-.51-.67-1.25.2,0,.28.15.51.22-.39-.36-.78-.73-.62-1.35.12,0,.28,0,.27.15a4,4,0,0,0-.47-1.41c-.05-.1-.09-.22-.12-.27h0l-.21,0-.31-.07a1.38,1.38,0,0,1-.4-.1c-.11,0-.13-.1-.14-.06s-.12.08-.29.15a3.11,3.11,0,0,1-.49.16.56.56,0,0,0-.15,0s0,0,0,0h0v0a1.49,1.49,0,0,1,.06.74c-.91-.23-.21.45-.94.63l.34.61.31-.32c.08.57.71,1,.55,1.49l-.38-.36c.12.35.21.69.35,1,0-.22.09-.43.15-.65.48.49.9-.25.87.52-.11-.13.12.55-.24.94h0c.29.21.6.43.52.88-.2.17-.82.12-.95.23.64.12.51,1.26,1.26,1.4a.91.91,0,0,0-.62.1l.55.07c-.07.3-.14.36-.45.42.15.79.83-.53.72.49-.06-.06-.12,0-.24-.12.06,1,.91,1.61,1,2.5-.6.53-.46-.64-.93-.13a8.58,8.58,0,0,0,1.18,1.62,4.69,4.69,0,0,1,1.07,1.6l0-.24c1-.34-.07,1.06.71,1.34-.15-.09-.62.13-.49.1a2.87,2.87,0,0,0,.78,1.1l.59.54.73.57-.32,0c.09.54.65,1.14.87,1.65.31,0,.48.22.67-.17a2.08,2.08,0,0,0,1.29,2c.71.38,1.43.67,1.51,1.66-.13-.12-.47-.12-.37,0a12.31,12.31,0,0,0,1.1.66c.23-.41,0-.31.09-.75a1.07,1.07,0,0,1,.94.14c-.62-.11-.48.56-.45.92.06-.14.22-.2.3-.33,0,1.05.67-.65,1,.32l-.18.17c.33.1.74.05,1,.29-.19.51-.43,0-.71.34.43.27,1.4-.28,1.46.41-.26,0-.51-.16-.77-.15.05.78.19.69.44,1l0,0,.56.72-.09-.26c1.24-.82,1.23.44,2.4.06-1.12.36-.36.37-.7.87.1.25.31.58.14.68.59-.24.42.69,1.26.3-.07.19.38.2.09.6.54.08,0-.36.18-.56.51-.13.85.24,1.25.61a1.48,1.48,0,0,0,1.59.5c1.07,0,1.46-.57,2.4-.58.19.4-.46.59-.46.59a1.17,1.17,0,0,0,1.27.41c-.14.13-.09.3,0,.55.37.05.43-.62.83-.21a2.86,2.86,0,0,1-.57.65c.48,0,1-.28,1.48-.33,0,.36-.39.43-.61.6.54,0,1.38,0,1.66-.47l-.28-.25c.19,0,0,.47-.17.54-.53.32-.57-.35-.55-.53l.34,0c0-1.2-1.29-.17-1.91-.41l.49-.73-.83.49c-.08-.25,0-.72.31-.75-.32-.52-.48.18-.72-.38,0-.08,0-.11.06-.13l-.5.09c.14-.14.12-.59.34-.38-.59-.72-1.42.15-1.48-.54l.08,0c-1.14-.12-.31.53-1.37.91,0-.53,0-1.08.06-1.62l-.34.52c-.09-.07-.28-.2-.15-.41-.55.21,0,.28-.42.54-.27-.74-1.51-.4-1.19-1.32-.39.33.32.53-.36.58.33-1-.68-.17-.9-.84.39-.4.66.08.46-.59-.7.66-.74-.64-1.18-.68-.41.63-.92-.24-1.64-.42.18-.19-.89-1-1.19-1.69l.09-.08c-.55.5-1,0-1.47-.23a.89.89,0,0,1,.81-.38L315,134a.75.75,0,0,1-.71,0l.45-.33c-.44-.39-1.31-.37-1.61-1.17-.41.32-.56,1.44-1.42,1.08.17-.21.49-.56.73-.49-.08,0-.35,0-.37-.2l.58-.09c-.11-.4-.43.14-.59-.1.29-.27.07-.36.33-.54.07,0,0,.31.23.27a1.21,1.21,0,0,1-.1-1c-.15.17-.4.36-.59.21-.42-.44.22-.47.15-.86-.31.06-.33-.4-.8,0-.11-.14.08-.33.16-.48-.4-.08-.91-1.13-1.21-.47v.09l-.05,0h0a2.08,2.08,0,0,1-1-1.25,3.4,3.4,0,0,0-.68-1.46l.17-.1a5.18,5.18,0,0,1-.67-.73,1.53,1.53,0,0,0-.68-.59.54.54,0,0,1,.37-.59c-.33-.35-.56-.31-.56-1,.52.28.2-.27.44.32-.12-.61.12-.85-.61-1.25.55,0,.42-.66.18-.87l-.18.53a2.24,2.24,0,0,1-.32-.84l.68-.09c.14-.7-.35-1.09-.76-1.51s-.77-.81-.26-1.44c-.54-.19-.11.72-.72.6-.1-.57.68-1.4.65-1.57.18-.83-1.12-.46-1.06-1.32a.8.8,0,0,1-1.17-.17c0-.59.85-.9,1.09-.58,0,.13,0,.21-.1.22.13.16.29.38.49.1l-.25,0c.16-.32,0-1.09.43-1-.3-.38-.42-.11-.48.23.21-.79-.19-1.13-.09-1.91-.11.14-.36.29-.38.17,0-.55-.08-.68-.26-.76a1.08,1.08,0,0,1-.28-.11.69.69,0,0,1-.14-.15l-.08-.17-.1-.22a1.4,1.4,0,0,0-.1-.16l-.07-.08s0,0-.2-.17a1,1,0,0,0-.73-.16,1.1,1.1,0,0,0-.32.1l-.13.08a1.11,1.11,0,0,0-.29.35l-.14.25a.47.47,0,0,1-.06.1l-.09.1a.34.34,0,0,1-.15.07,1.85,1.85,0,0,1-.25,0c-.13,0-.2.1-.06.55-.26.51-.64.1-.82-.14.43.83-.32,1.42-.4,1.86l-.2-.39a1.19,1.19,0,0,1,.12.61l.47-.22c-.08.23-.08.42-.28.41.32.23.79-.18,1.22.27-.24.3.27.9-.36,1,.2-.93-.63.11-.74-.68a.68.68,0,0,1,0,.56c-.07,0-.14,0-.17-.09-.55.9.72.41.71,1.31-.35-.11-.67.21-.59.35,0-.35.59-.18.86.15-.27.58.21.63.17.93l.14-.34c.35.11.3.4.41.81-.28,0-.19-.37-.31-.23.62.46-.66,1-.27,1.61-.25.27-.67,0-.84.24.42.7-.53.7-.2,1.43.49-.17.38-.22.8.32l-.25-1.19.64.8c0-.36-.25-.78-.15-1,.36.38.25.34.65.19-.75.44.36,1-.18,1.55l-1.18-.13c-.6.77.46,1.55,0,2.59l.26-.31c.44.21,0,.68.09,1.06-.39-.11-.57.08-.84.18.29,0-.17.77.57,1l-.62.36c-.4.8.84,1.26.48,2.06-.34-.36-.71-.07-.85-.7-.08.27-.23.49,0,.58-.29.08.28.91-.16,1.05.13.16.51.33.37.63a.32.32,0,0,1-.18-.06c.18.06.09.56.59.43-1.44.45-.77,2.41-2.06,2.74a11,11,0,0,1-.51,1.94c-.09-.08-.17-.08-.09-.17-.66.58.85.93.08,1.56-.78.14-.11-.57-.45-.42-1.24-.45-.28,1-1.26,1.19v-.15c-.62.15-.1,1.18-.58,1.75a.39.39,0,0,0-.17-.11,3.36,3.36,0,0,1-.39,2.4c-.26-.49,0-.43-.51-.63-.13.29.72.42.44,1-.36,0-.82.21-1.29-.1.12-.16.23-.33.34-.49-.73-.2-.45.61-.76.76l-.21-.23c-.53.72.06,1.3-.7,1.95l.24.09c.15,1-.63,0-.62.81l-.66-.47a7.36,7.36,0,0,1-.87,1.9,7,7,0,0,1,.43-1.95c-.27.22-.85.8-.76,1.22.07-.14.08-.41.26-.4a1.79,1.79,0,0,1-.82,1.75c-.74-1.3-1.76.69-2.78-.12-.79,1.05-2.19.83-3.41,1.26.81,1-.36.15,0,1.3-.3.17-.43.19-.47.12-.39-.16-.76-.34-1.12-.52s.24-.32.16-.59c-.67,0-.37-.45-.84-.69.16.42-.13.67-.52.52.19.17.39.35.6.51-.88.73-.9-.93-1.76-.24a3.39,3.39,0,0,0,.27-.39c-.46.22-1.65,0-2.23.87-.07-.16-.14-.5.08-.56a2.2,2.2,0,0,0-.89,0c-.31,0-.63,0-1,.05-.64,0-1.3.06-1.6-.44l.19-.25c-.22,0-.55.38-.69,0,.06-.11.19-.24.11-.3s-.74.26-.94,0l.37-.21a2.16,2.16,0,0,0-.65-.37,2.36,2.36,0,0,0-.71-.05,3.07,3.07,0,0,1-1.51-.09,1.66,1.66,0,0,0-.25-1.88l.1-.08a6.8,6.8,0,0,0-.71-.55,5.21,5.21,0,0,0-.78-.4,5.73,5.73,0,0,1-1.65-.88,3,3,0,0,0-.46-1.82c-.15-.32-.32-.64-.47-1a2.65,2.65,0,0,1-.2-1c-.07.24-.64.25-.81.08.05-.34-.89-.54-.12-.79l0,.11c.62-.48.28-1,.17-1.42l-1,.23a1.46,1.46,0,0,0,.26-1.15,3.24,3.24,0,0,0-.31-1.09,3.61,3.61,0,0,1-.32-1,.84.84,0,0,1,.45-.76c-.28-.28-.3-.64-.58-.93H264a7,7,0,0,0,.16-2.2l.4.24c0-.53-1.53-.88-1.48-1.45l.86,0c.11-1,1.16-1.71.72-2.89.11.06.33.17.32.33a7.88,7.88,0,0,1,.52-.89c.14-.33.13-.65-.43-.83.69.32.45-.9.51-1.52l.44.35c-.37-.74-.52-.87-.33-1.54.15-.09.44.14.21.23.53-.27-.24-.66.42-1l.13.4c.38-.41.2-.49.07-1a.87.87,0,0,1,1.21-.49c-.19-.25-.3-.75,0-.9a.36.36,0,0,1,.18.34c.91-.43.44-1.5,1.31-1.56a.47.47,0,0,0,.31.15c-.55.5-.94,1-.94.87.38.35.83,0,1,.8,0-.61,0-1.76.57-2a.51.51,0,0,1,.18.07v.09a.38.38,0,0,0,.2-.32,1.3,1.3,0,0,0,.44-.22c.34.27.66-.27.9-.45-.39-.4,0-.59-.62-.7.06,0,0,.09-.13.24a.23.23,0,0,0-.06.12l0,0c-.13.14-.32.32-.53.52,0-.36,0-.71.47-.69a9.8,9.8,0,0,1-.28-1c.83.3,1.69.12,2.08.44.51-.8,1.53-1.45,1.42-2.63.14-.26.42.08.6.16-.07.17-.22.26-.2.43.27-.52,1.2-1,.93-1.63.74-.06,0,.77.75.2v.25c1.05,0,1.42-.71,1.89-1.43a3.06,3.06,0,0,1,.82-1,1.76,1.76,0,0,1,1.4-.19c-.16,0-.24,0-.31-.14a11.61,11.61,0,0,0,3.23-1.22,12.3,12.3,0,0,1,1.64-.58,4.25,4.25,0,0,1,1.74,0c.66.05.62-.42.93-.84l.25.57.52-.81c.87-.7,1.81,1.22,2.86.12l-.2-.38c.43,0,1.34-.34,1.3.13,0-.08.11-.43.29-.23l0,.32,1-.6c.82.24-.1,1.25,1.05,1.34.42-.12,1.26-.9,1.11-1.12a.53.53,0,0,1-.45-.52l.42-.16c.11-.92.52-1.87-.55-2.54l-.76.56-.24-.46.64,0c-.36-.43-.6-.06-.85.2a.83.83,0,0,0-.33-.51l-.72.92c-.1-.36.31-.74-.2-.91-.33.43.37.8-.19,1.1-.38-.41-.3-.76-.7-.37a.42.42,0,0,1,.17-.51c-.36.31-1,.17-1.14.7-.43-.48-1.24.28-1.31-.6a2.14,2.14,0,0,1-.9.86c.45-1.16-1.28.17-1.32-1-.15.51-.55.68-1,.83a3.22,3.22,0,0,0-1.28.64c0-.08.08-.25.16-.22-.47,0-.68-.21-1-.3.14.75-.49,1.15-.71,1.72-.77-.55,0-1-.33-1.62.21.6-.76.91-.41,1.35-.56-.31-.43-.1-.86-.65.25.95-.33.29-.46,1-.76-.23-.48-.8-1-.27C280.16,106.93,280.62,106.38,280.62,106.38Zm-12.93,10.27h0l.22-.25Zm-1,1c.13-.11.28-.25.43-.4.18.1.28.28.18.36C267.3,117.44,267,117.59,266.73,117.62Zm4.69.88c-.1.18-.22.15-.32.08a2,2,0,0,0,.21-.28l0-.06A1.34,1.34,0,0,1,271.42,118.5Z"/><path class="cls-1" d="M271.19,117.72a.32.32,0,0,1,0-.09h-.17l.06.17Z"/><path class="cls-1" d="M310.24,129.71v0a.16.16,0,0,1,0,.09S310.23,129.73,310.24,129.71Z"/><polygon class="cls-1" points="258.95 135.17 259.1 135.16 258.96 135.04 258.95 135.17"/><path class="cls-1" d="M313.8,136.28a.31.31,0,0,0,0,.17A.39.39,0,0,0,313.8,136.28Z"/><path class="cls-1" d="M316.32,138.31l.27.42A1.69,1.69,0,0,0,316.32,138.31Z"/><path class="cls-1" d="M318.31,139.84l.16-.18h0Z"/><path class="cls-1" d="M305,119a.29.29,0,0,0,0,.09C305.17,119.36,305.13,119.2,305,119Z"/><path class="cls-1" d="M303.07,117.68a2.15,2.15,0,0,1-.35-.31C302.73,117.58,302.76,117.74,303.07,117.68Z"/><path class="cls-1" d="M303.74,132.35h0l0,.07Z"/><path class="cls-1" d="M302.6,116.85a.54.54,0,0,0,.12.52A.74.74,0,0,0,302.6,116.85Z"/><path class="cls-1" d="M328.3,143.94l.11.05a.19.19,0,0,1,0-.09Z"/><path class="cls-1" d="M328.45,143.9l.14,0C328.53,143.85,328.48,143.85,328.45,143.9Z"/><path class="cls-1" d="M328.9,143.78l-.31.08C328.69,143.89,328.8,143.93,328.9,143.78Z"/><path class="cls-1" d="M325.19,142.82l-.09.19A.67.67,0,0,0,325.19,142.82Z"/><path class="cls-1" d="M324.23,142.54c.21.13.43.62.79.61l.08-.14C324.85,143.24,324.55,142.29,324.23,142.54Z"/><path class="cls-1" d="M321.43,138.69l.65.47c0-.25-.08-.59.26-.5C321.72,137.67,322.33,139.19,321.43,138.69Z"/><path class="cls-1" d="M319.43,137.29c.42.11.15-.28.23-.37C319.34,137,319.25,137,319.43,137.29Z"/><path class="cls-1" d="M307.82,124.81l.47-.19C308.09,124.37,308.11,124.7,307.82,124.81Z"/><polygon class="cls-1" points="304.02 122.67 303.85 123.09 304.35 123.07 304.02 122.67"/><polygon class="cls-1" points="306.83 119.58 306.94 119.69 306.6 119.24 306.83 119.58"/><path class="cls-1" d="M297.89,134l.62.14C298.49,133.92,297.84,133.63,297.89,134Z"/><path class="cls-1" d="M292,144.84c-.32-.13-.7,0-.64.33C291.57,145,291.94,145,292,144.84Z"/><polygon class="cls-1" points="264.51 137.73 264.78 137.9 264.48 137.53 264.51 137.73"/><path class="cls-1" d="M371.62,85.82c-.16.11-.3.48,0,.53l.46-.5Z"/><path class="cls-1" d="M372.5,87.69a1.58,1.58,0,0,0,1.09-1.11c-.55.43-.49.16-1.12.68-.25-.05-.28-.39-.12-.59-.16.11-.27-.31-.58,0,0,.6.38.81,1,.64C372.74,87.48,372.58,87.59,372.5,87.69Z"/><path class="cls-1" d="M391.57,101.91l-.05-.16A.28.28,0,0,0,391.57,101.91Z"/><path class="cls-1" d="M401,113.09a.17.17,0,0,0-.21,0C400.86,113.1,400.94,113.15,401,113.09Z"/><path class="cls-1" d="M401.81,115.55a.78.78,0,0,1-.05-.14C401.74,115.49,401.74,115.55,401.81,115.55Z"/><path class="cls-1" d="M391.57,101.91l.15.42C391.89,102.19,391.68,102.08,391.57,101.91Z"/><path class="cls-1" d="M376.18,87.89a.52.52,0,0,0-.27,0,.78.78,0,0,1,.21,0Z"/><path class="cls-1" d="M386.29,98.2l-.09-.07-.24.15Z"/><path class="cls-1" d="M382.23,95.41c.08.08.42-.36.6-.54-.19.16-.32.2-.42.18A2,2,0,0,0,382.23,95.41Z"/><path class="cls-1" d="M376,90.43h0Z"/><path class="cls-1" d="M389,100.5a.75.75,0,0,0-.09.18A.61.61,0,0,0,389,100.5Z"/><path class="cls-1" d="M364,114.51s0,.06,0,.1S364,114.51,364,114.51Z"/><path class="cls-1" d="M370,117.15l-.08,0c0,.1,0,.21,0,.31Z"/><path class="cls-1" d="M403.7,119.74v0C403.58,119.65,403.63,119.7,403.7,119.74Z"/><path class="cls-1" d="M399.53,150.61c.54.37-.56.81.22,1.18C399.65,151.59,400.13,150.79,399.53,150.61Z"/><path class="cls-1" d="M376.26,88a1,1,0,0,1,.18.1A.41.41,0,0,0,376.26,88Z"/><path class="cls-1" d="M399.75,151.79h0l.08,0Z"/><path class="cls-1" d="M408.93,128.45a.59.59,0,0,0,.2-.18A.71.71,0,0,0,408.93,128.45Z"/><path class="cls-1" d="M406.07,121.44l0,.2A.5.5,0,0,0,406.07,121.44Z"/><path class="cls-1" d="M410.69,131.9c0,.11-.1.16,0,.28l.06-.06C410.67,132.09,410.62,132,410.69,131.9Z"/><path class="cls-1" d="M411.13,135.93l.11-.08,0-.13Z"/><path class="cls-1" d="M352.37,124.07a1.46,1.46,0,0,1,.54-.09C352.51,124,352.57,123.14,352.37,124.07Z"/><path class="cls-1" d="M376,88.17c.09-.11.16-.16.23-.15l-.14,0A.33.33,0,0,0,376,88.17Z"/><path class="cls-1" d="M415.08,131.28l0,.76A3.37,3.37,0,0,0,415.08,131.28Z"/><path class="cls-1" d="M371.08,149.66l-.18,0A.17.17,0,0,0,371.08,149.66Z"/><path class="cls-1" d="M415.47,134.24a1.1,1.1,0,0,0-.36.45.42.42,0,0,0,.15.08Z"/><path class="cls-1" d="M352.92,124h0Z"/><path class="cls-1" d="M354.4,118.56c-.53.6.33.74.55,1.12-.38.83-.68,0-1.18.06-.17.63.17,1.36-.08,1.7-.12,0-.2,0-.29-.14a2.4,2.4,0,0,1-.23,1.28c-.15.45-.35.9-.05,1.36a.58.58,0,0,1-.2,0,2.56,2.56,0,0,1,1,.19c-.06.32.32.68-.18.68.06-.18-.13-.25-.25-.38l.12.38c-.75.15-.12-.51-.61-.64a8.75,8.75,0,0,0,.19,1.14c.06.36.17.69,0,.93-.69,0-.12-1.25-.78-.62a4.46,4.46,0,0,1,.41-.78c-1.2.42.2-.5-1.07-.14a1.83,1.83,0,0,0-.11,1.25,2.93,2.93,0,0,1,0,1.25c.37.26.55-.08.94.17.39.74,0,1.05-.39,1.36s-.73.6-.15,1.09c.51.21,1.37.12,1.1,1l-.8-.07c.19,1.07,1.22.24,1.07,1.42-.34-.07-.51-.67-.54-.5-.33.87.58.33.75.82l-.59.36a20.18,20.18,0,0,0,2.24,2.7c-.21,0-.49,0-.53.34a14.59,14.59,0,0,1,2.38,3.93h.79a.24.24,0,0,1-.22.33c.22.54.29-.24.64-.21a.29.29,0,0,1-.22.5,7.71,7.71,0,0,1,1.74.85,2.57,2.57,0,0,1,1.23,1.37h-.25c.42.7,1.43-.36,1.62.5h-.17a11.66,11.66,0,0,0,1.94,1.58,4.24,4.24,0,0,1,1.51,1.71c.66-.58,1.17,1.22,1.88.27.5,1,.16,1,1.11,2,.28.23.82-.37,1.26-.28l-.29.54.83-.28-.07.79.44.06a.48.48,0,0,1-.07-.56,1.46,1.46,0,0,1,1.06,1.39l1.59.19c-.13.21-.4.18-.65.23,1-.22-.14.65.78.45,0-.17.2-.31.27-.41.18.48,1,.82,1.59.92l-.27.35a27.32,27.32,0,0,0,3.48,1.14.57.57,0,0,1,.35-1l-.07.67c.36-.31-.29-.36.34-.67.42.22.06.8-.27.92l.62,0c0,.2-.19.25-.3.48.35-.31.75.93,1.29.37l0,.2c1.23.36,1.85.3,2.86.54.16-.54.53-.33.93-.7a7.08,7.08,0,0,0,2.34,1.07c.69-.16.27-.43.61-.71,0,.51.87.62.35.9a7.93,7.93,0,0,0,2.85-.15c-.13-.22-.29-.33-.19-.5a.48.48,0,0,1,.49.52l-.07.05a3.41,3.41,0,0,1,2.55.46c.87.32,1.75.63,2.37.06l-.07.06,1.28-.66c.61,0-.33.41.15.69a3,3,0,0,1,1.78-.56,2.34,2.34,0,0,0,1.6-.43c.61.62,1.48.39,2.27,0a3.88,3.88,0,0,1,2.36-.64l-.21-.3c.17-.45.45,0,.71,0-.15-.24-.46-.14-.35-.4,1.18-.77,2.5-1.35,3.86-2.09a12.56,12.56,0,0,0,3.84-3c.71-1-1.22-1.49.16-2.32.14.21.3.43.42.65a9,9,0,0,1,.38-1.7c.14-.54.33-1.07.5-1.59a7,7,0,0,0,.37-3.18c.14.15.34.18.3.38.55-.37.21-1.61-.17-1.64.07-.31.36,0,.57-.22.31-.43-.55-1.12-.07-1.33.08,0,.15.13.19.21-.2-.29.07-1.32-.48-1,.27-.77-.27-1.43,0-2.05-.63-.34.18-1.32-.71-1.35.46,0,.6-.37.57-.77a1.65,1.65,0,0,0-.52-1c.3.11.21-.46.62-.34-.11-.55-.4-1-.83-.81.43-.61.1-1.07-.2-1.45s-.53-.73,0-1.21c-1-1.43-1.92-2.73-2.8-3.85.81-.45.83,1.38,1.65.91-1-1.21-2-1.33-2.48-2.58-.06-.35.43,0,.62,0-1-.93-1.17-2.2-2.2-2.92.07,0,.22,0,.34.08-.15-.18-.16-.52-.5-.29l.21.13c-.32.62-1.53-.11-1.82,0,1.2-.29-.33-1.12,1.25-1.38a.55.55,0,0,0-.62,0c-.05-.23,0-.37.43-.35-.61-.57-.83-.09-1.22-.71.17-.11.31,0,.55-.09-.53-.1-1.06-.2-1.25-.81.12,0,.21-.18.31,0-.64-.85-1.83-1-2.2-2.11.91-.21,0-.49.59-1l-.55-.39-.15.41c-.31-.46-1-.54-1.1-1.07l.49.16c-.24-.26-.47-.51-.72-.76,0,.21.08.42.11.64-.63-.23-.72.6-1-.11.15.08-.32-.43-.14-.93h0c-.35-.07-.72-.14-.81-.57.12-.23.7-.44.79-.59-.66.17-.91-.93-1.66-.77a1,1,0,0,0,.55-.33l-.54.15c0-.3,0-.38.27-.54-.42-.66-.58.78-.84-.18.08,0,.11,0,.27,0-.43-.83-1.35-1.17-1.73-1.94.4-.68.63.42.92-.2-.94-.82-2.34-1.29-3-2.25l.09.22c-.88.62-.23-1-1-1.06.16,0,.55-.28.44-.23-.44-.7-1.34-1-2.47-1.56l.3-.1c-.18-.5-.82-1-1.12-1.39-.29.09-.48-.13-.61.28-.21-2.18-2.79-1.31-3.1-3.14.13.1.46,0,.36,0l-1.1-.53c-.21.42-.05.32-.07.75a1,1,0,0,1-.91-.08c.61.08.45-.6.42-.94-.05.13-.21.21-.28.34,0-1-.63.67-1-.26l.17-.17c-.33-.08-.75,0-1-.24.19-.52.41,0,.69-.36-.41-.25-1.36.29-1.4-.4.25,0,.49.16.74.16,0-.79-.16-.69-.39-1l0,0-.51-.71.08.26c-1.28.82-1.17-.46-2.34-.14,1.13-.3.38-.35.76-.82-.08-.26-.24-.59-.07-.68-.59.2-.33-.68-1.17-.37.09-.18-.34-.24,0-.6-.51-.13-.08.34-.25.53-1,.17-1.12-1.63-2.53-1.42-1-.17-1.5.33-2.41.17-.1-.41.56-.49.56-.49A1.17,1.17,0,0,0,375.9,89c.16-.1.15-.27.14-.53-.34-.14-.56.5-.83,0a2.84,2.84,0,0,1,.7-.5c-.46-.06-1,0-1.48,0,.06-.35.49-.32.73-.44-.51-.1-1.28-.34-1.67.06l.19.32c-.17-.06.14-.45.3-.47.58-.17.45.45.38.63L374,88c-.27,1.15,1.19.44,1.71.82l-.64.6.9-.29c0,.26-.14.71-.47.66.19.58.5,0,.6.53,0,.09,0,.11-.08.12h.5c-.16.11-.23.55-.4.31.44.81,1.42.08,1.35.79h-.09c1.08.32.4-.47,1.48-.66l-.31,1.57L379,92c.08.07.25.23.08.42.58-.14.08-.27.5-.48.17.76,1.42.56,1,1.46.41-.29-.24-.59.42-.55-.43,1,.66.22.81.9-.42.36-.65-.13-.51.54.75-.6.7.69,1.14.77.42-.59.92.25,1.62.46-.17.18.84,1.08,1.21,1.67l-.09.09c.54-.53,1,0,1.47.16a.88.88,0,0,1-.78.43l.36.27a.75.75,0,0,1,.7,0l-.43.36c.49.35,1.38.23,1.75,1,.36-.37.41-1.51,1.27-1.24-.15.24-.43.62-.66.57.07,0,.34,0,.37.17l-.55.15c.14.39.39-.18.58,0-.25.31,0,.36-.25.57-.08,0-.08-.28-.26-.23a1.22,1.22,0,0,1,.24,1c.13-.19.35-.41.56-.3.48.37-.15.5,0,.88.29-.12.39.35.79-.09.13.11,0,.34-.08.51.4,0,1.12.93,1.28.23l0-.09.06,0h0c1.16.27,1.35,1.68,2.23,2.24l-.14.14c.58.27,1,.87,1.66.89.13.13,0,.56-.2.66.42.25.62.14.83.86-.57-.12-.12.32-.51-.19.28.56.13.87,1,1-.53.18-.18.76.13.87v-.55a2,2,0,0,1,.57.68l-.6.32c.14,1.45,2.47.83,2,2.41.57,0-.15-.73.45-.84.29.5-.12,1.56,0,1.7.17.84,1.2,0,1.5.79a.78.78,0,0,1,1.12-.32c.28.51-.4,1.16-.75,1-.1-.1-.08-.19,0-.24-.18-.09-.41-.22-.48.11l.24-.09c0,.37.43,1,0,1.07.42.22.42-.07.34-.4.13.79.64.93.88,1.68,0-.17.2-.42.27-.32.39,1.07.65.14,1.16.7-.07.56-.8.35-.13.81,0,.53-.48.43-.74.39.76.32.45,1.23.59,1.6l-.36-.19a1,1,0,0,1,.4.41l.29-.43c0,.22.14.37,0,.48.38,0,.58-.57,1.17-.43-.05.36.69.58.2,1-.29-.87-.48.42-1-.16a.62.62,0,0,1,.28.46c0,.06-.13,0-.19,0,0,1,.81,0,1.25.72-.36.09-.46.52-.32.61-.18-.31.41-.46.81-.32.06.62.5.42.63.69l-.07-.36c.37-.09.47.18.78.46-.22.17-.35-.21-.38,0,.76,0,0,1.17.62,1.49-.07.37-.56.36-.58.66.74.36-.05.89.64,1.32.31-.42.19-.39.85-.18L407,124l1,.31c-.18-.31-.64-.5-.68-.73.52.12.4.15.65-.2-.37.78.85.64.72,1.37l-1,.57c0,1,1.25,1,1.4,2l.06-.39c.48-.06.3.56.61.8-.38.12-.43.35-.62.57.27-.11.22.71,1,.55-.12.2-.23.4-.36.6,0,.85,1.37.62,1.41,1.48-.47-.15-.67.27-1.08-.19,0,.27,0,.52.3.46-.21.2.69.63.35,1,.19.09.6.06.62.37a.3.3,0,0,1-.19,0c.19,0,.34.44.73.11a1.63,1.63,0,0,0-.35,1.68c.09.58.18,1.15-.32,1.54a9,9,0,0,1,.27,1.87c-.12,0-.2,0-.15-.11-.41.72,1.12.52.64,1.37-.69.38-.29-.48-.57-.23-1.31,0,.08,1-.77,1.5l-.05-.15c-.52.33.34,1.11.05,1.78a.36.36,0,0,0-.19,0,3,3,0,0,1,.4,2.3c-.39-.38-.14-.39-.67-.45,0,.31.82.21.71.84-.34.08-.74.39-1.26.19l.2-.51c-.77,0-.25.66-.52.84l-.26-.17c-.29.73.39,1.18-.21,1.88l.24.07c.29.9-.6,0-.49.81l-.68-.44a4.62,4.62,0,0,1-.72,1.85,9.14,9.14,0,0,1,.3-1.88c-.21.22-.74.74-.64,1.15.06-.14.06-.39.24-.38a1.6,1.6,0,0,1-.76,1.69c-.36-.67-.77-.52-1.23-.32s-1,.45-1.46,0c-.81,1-2.22.7-3.46,1.09.78,1-.36.13,0,1.3-.29.16-.42.17-.47.1a11.07,11.07,0,0,1-1.11-.52c-.28-.31.25-.31.17-.58-.69,0-.38-.46-.86-.71.16.42-.14.66-.54.55l.62.47c-.87.82-.94-.89-1.83-.17l.27-.4a9.56,9.56,0,0,1-1.13.3,1.52,1.52,0,0,0-1.15.78c-.1-.14-.21-.47,0-.56a2.43,2.43,0,0,0-.95.1c-.32.06-.66.16-1,.24a1.93,1.93,0,0,1-1.74-.09l.12-.29c-.23.06-.46.52-.71.18,0-.12.13-.28,0-.31s-.67.44-.95.24l.3-.31c-1.12-.57-2,.52-3,.51.18-.86-.69-1.35-1.11-1.6l0-.11a4.31,4.31,0,0,0-1.91-.13,9.06,9.06,0,0,1-2,.14c-.49-1.14-2.5-1.29-3.52-2.28.12.23-.29.62-.54.61-.22-.29-1,.22-.67-.5l.09.06c.11-.83-.56-.87-1-1.1l-.51.92c-.27-1-1.09-1.21-1.86-1.42s-1.47-.4-1.45-1.17c-.41.09-.73-.12-1.14-.05l.3-.48a7.85,7.85,0,0,0-2-1.3l.4-.22c-.48-.35-1.53,1-2,.67l.33-.79c-.86-.61-1.29-1.79-2.55-1.84.09-.08.27-.26.42-.18-.37-.33-1.1-1.61-1.71-.62.48-.59-.74-.77-1.4-.91l.45-.35c-.85.21-1,.33-1.6,0-.06-.16.22-.41.26-.16-.16-.58-.66.08-.9-.59l.42-.08c-.35-.41-.46-.24-1-.19a.87.87,0,0,1-.24-1.27c-.28.15-.8.19-.89-.16a.37.37,0,0,1,.37-.12c-.23-.94-1.33-.69-1.24-1.51a.58.58,0,0,0,.22-.27,5.9,5.9,0,0,1,.64,1c.41-.31.16-.8,1-.87a10.54,10.54,0,0,1-1.09-.24c-.36-.13-.65-.33-.69-.62a.66.66,0,0,1,.11-.16l.08,0a.31.31,0,0,0-.25-.24,1.11,1.11,0,0,0-.1-.46c.33-.25-.06-.64-.16-.89-.5.27-.57-.09-.84.41,0,0,.08,0,.18.17s.06.07.1.08h-.05c.1.15.19.36.35.59-.37,0-.67-.15-.53-.57a7.58,7.58,0,0,1-1,0,4.84,4.84,0,0,0,.55-1.05,1.84,1.84,0,0,1,.52-.72c-.62-.64-.7-1.65-1.86-2-.15-.22.28-.31.44-.42.12.12.11.28.27.33-.29-.42-.22-1.3-.94-1.42.38-.59.65.33.6-.46l.21.12a1.15,1.15,0,0,0,.33-1,4.45,4.45,0,0,0-.3-1.05,1.83,1.83,0,0,1-.06-1.13,1.2,1.2,0,0,1,.92-.9c-.15.06-.22.09-.34.05a7.14,7.14,0,0,0,1-1.18c.34-.4.63-.87,1-1.29a2.8,2.8,0,0,1,2.63-1.18c.57,0,.51-.42.76-.87l.26.56.46-.81c.41-.32.85,0,1.3.27s.88.5,1.44,0l-.17-.4c.42.05,1.33-.28,1.27.19,0-.08.13-.43.3-.22v.32l1.05-.55c.82.22-.13,1.26,1.08,1.31.46-.13,1.28-1,1.1-1.16a.55.55,0,0,1-.49-.5l.4-.17c.06-.94.31-1.9-.65-2.52l-.67.57-.22-.44.57,0c-.33-.42-.53,0-.76.22a.8.8,0,0,0-.3-.5l-.68.9c-.08-.37.31-.73-.16-.93-.32.42.32.82-.21,1.09-.34-.42-.25-.76-.65-.39a.42.42,0,0,1,.18-.5c-.35.29-1,.14-1.13.64-.38-.51-1.23.21-1.26-.67a2.11,2.11,0,0,1-1,.83c.51-1.14-1.33.13-1.38-1-.3,1-1.77.85-2.46,1.74,0-.09.06-.28.15-.27-.52.16-.79-.05-1.2,0,.29.74-.35,1.3-.39,2-1-.22-.23-1-.8-1.45.37.49-.6,1.25-.06,1.51-.69,0-.47.12-1.13-.15.63.75-.18.45,0,1.15-.8.18-.81-.47-1.07.29C354.22,119.31,354.4,118.56,354.4,118.56Zm1,16.92h0l-.21-.27Zm.76,1.13a4.69,4.69,0,0,0-.33-.49c.14-.15.33-.21.4-.1C356.12,136,356.22,136.35,356.2,136.61Zm1.91-4.29c.14.12.07.23,0,.3a1.49,1.49,0,0,0-.19-.24h-.07Z"/><path class="cls-1" d="M357.31,132.37a.15.15,0,0,1-.07-.05.64.64,0,0,0-.06.16l.18,0Z"/><path class="cls-1" d="M391.5,101.73l0,0a.1.1,0,0,1,0-.09Z"/><polygon class="cls-1" points="369.63 149.2 369.7 149.07 369.54 149.13 369.63 149.2"/><path class="cls-1" d="M387.3,95.75a.27.27,0,0,0,0-.18A.33.33,0,0,0,387.3,95.75Z"/><path class="cls-1" d="M384.87,93.85l-.24-.42A2,2,0,0,0,384.87,93.85Z"/><path class="cls-1" d="M383.05,92.29c-.08.07-.12.13-.17.18h0Z"/><path class="cls-1" d="M409.21,119.36s0,0,.07.06C409.48,119.55,409.37,119.45,409.21,119.36Z"/><path class="cls-1" d="M401.89,110.76a2.19,2.19,0,0,1,.43.13C402.24,110.71,402.15,110.58,401.89,110.76Z"/><path class="cls-1" d="M415.08,131.2h0v0Z"/><path class="cls-1" d="M402.63,111.31a.52.52,0,0,0-.31-.42A.73.73,0,0,0,402.63,111.31Z"/><path class="cls-1" d="M374.36,86.82l-.08-.07a.22.22,0,0,1-.06.07Z"/><path class="cls-1" d="M374.22,86.82h-.14C374.13,86.85,374.17,86.87,374.22,86.82Z"/><path class="cls-1" d="M373.78,86.82h.3C374,86.78,373.91,86.71,373.78,86.82Z"/><path class="cls-1" d="M377,88.58l.13-.16A.58.58,0,0,0,377,88.58Z"/><path class="cls-1" d="M377.82,89c-.17-.15-.27-.66-.61-.71l-.11.13C377.38,88.23,377.46,89.19,377.82,89Z"/><path class="cls-1" d="M379.89,93.18l-.58-.54c0,.26,0,.6-.33.46C379.48,94.16,379.07,92.58,379.89,93.18Z"/><path class="cls-1" d="M381.75,94.76c-.4-.14-.17.27-.25.36C381.83,95.1,381.91,95.09,381.75,94.76Z"/><path class="cls-1" d="M395.05,105.86l-.4.32C394.92,106.36,394.8,106,395.05,105.86Z"/><polygon class="cls-1" points="399.27 106.63 399.31 106.17 398.85 106.36 399.27 106.63"/><polygon class="cls-1" points="397.72 110.48 397.57 110.42 398.06 110.71 397.72 110.48"/><path class="cls-1" d="M410.59,135.24l.62-.13C411.09,134.9,410.38,134.91,410.59,135.24Z"/><path class="cls-1" d="M408.64,146.45c-.32-.09-.65,0-.55.34C408.29,146.64,408.63,146.6,408.64,146.45Z"/><polygon class="cls-1" points="374.97 146.25 375.28 146.17 374.79 146.13 374.97 146.25"/><path class="cls-1" d="M404.33,227.56c-.05.2.15.55.43.35l0-.7Z"/><path class="cls-1" d="M406.82,227.89a1.35,1.35,0,0,0,0-1.6c-.12.73-.3.51-.4,1.37a.42.42,0,0,1-.65-.23c0,.2-.52,0-.53.5a1,1,0,0,0,1.46-.46C406.84,227.56,406.8,227.76,406.82,227.89Z"/><path class="cls-1" d="M436,214.39l-.22.05A.47.47,0,0,0,436,214.39Z"/><path class="cls-1" d="M452.18,202.66c-.1.11-.1.21-.07.26C452.19,202.79,452.25,202.68,452.18,202.66Z"/><path class="cls-1" d="M455.22,200.87,455,201C455.14,201,455.22,200.94,455.22,200.87Z"/><path class="cls-1" d="M436,214.39l.56-.1C436.44,214.09,436.2,214.3,436,214.39Z"/><path class="cls-1" d="M410.28,224.73a.67.67,0,0,0-.19.28,1.18,1.18,0,0,1,.22-.17Z"/><path class="cls-1" d="M428.64,219.36l-.14.08a1.58,1.58,0,0,0,0,.3Z"/><path class="cls-1" d="M422.69,222.61c.15-.05-.06-.57-.12-.82a.55.55,0,0,1-.12.49A1.23,1.23,0,0,0,422.69,222.61Z"/><path class="cls-1" d="M412.56,226.24l-.14.15Z"/><path class="cls-1" d="M432.91,217a1,1,0,0,0,.16.15A.46.46,0,0,0,432.91,217Z"/><path class="cls-1" d="M484.89,60.09s0,.06,0,.1S485,60.1,484.89,60.09Z"/><path class="cls-1" d="M490.89,66.55l-.1-.06-.25.19Z"/><path class="cls-1" d="M460.18,196.84h0C460.08,197,460.14,196.94,460.18,196.84Z"/><path class="cls-1" d="M482.39,143.78c-.51.66-.63-1.09-1.2-.1C481.41,143.59,482.05,144.61,482.39,143.78Z"/><path class="cls-1" d="M410.47,224.73l.25-.11A.66.66,0,0,0,410.47,224.73Z"/><path class="cls-1" d="M481.19,143.68h0l-.06.1Z"/><path class="cls-1" d="M469,185.1a.71.71,0,0,0-.29,0A.42.42,0,0,0,469,185.1Z"/><path class="cls-1" d="M461.81,193.3l.23-.15A1.14,1.14,0,0,0,461.81,193.3Z"/><path class="cls-1" d="M471.34,179.87c.11-.1.2-.11.23-.32l-.09,0C471.51,179.67,471.5,179.77,471.34,179.87Z"/><path class="cls-1" d="M474,174.66l-.15.05-.05.18Z"/><path class="cls-1" d="M466.72,66.38a1.44,1.44,0,0,1,.56.12C466.93,66.3,467.49,65.49,466.72,66.38Z"/><path class="cls-1" d="M410.41,225a.28.28,0,0,1,.06-.29l-.16.11A.22.22,0,0,0,410.41,225Z"/><path class="cls-1" d="M467.6,177.48l.48-.74A3.94,3.94,0,0,0,467.6,177.48Z"/><path class="cls-1" d="M467.57,107.87l-.15-.17A.23.23,0,0,0,467.57,107.87Z"/><path class="cls-1" d="M469.25,174.39a1.3,1.3,0,0,0,.58-.27,1.09,1.09,0,0,0-.08-.15Z"/><path class="cls-1" d="M467.29,66.51h0Z"/><path class="cls-1" d="M472.06,61.43c-.92.45-.09.86-.08,1.33-.9.76-.73-.2-1.27-.33-.57.53-.63,1.45-1.09,1.73-.1-.08-.22,0-.2-.24a3.85,3.85,0,0,1-1,1.21c-.42.42-.88.82-.9,1.42a.56.56,0,0,1-.21,0,2.13,2.13,0,0,1,.81.61c-.27.32-.17.87-.63.66.18-.17,0-.32,0-.51l-.14.46c-.79-.16.23-.6-.14-1a11.78,11.78,0,0,0-.57,1.31,2.15,2.15,0,0,1-.58,1c-.64-.27.74-1.4-.28-1a7.18,7.18,0,0,1,.87-.67c-1.37-.09.49-.43-.89-.62a3.19,3.19,0,0,0-.88,1.28,6.41,6.41,0,0,1-.78,1.31c.17.46.53.2.7.66a1.34,1.34,0,0,1-1.22,1.22c-.49.11-.95.2-.84,1,.26.53,1,1,.25,1.73l-.6-.58c-.55,1.23.78,1-.11,2.2-.22-.31.05-1.06-.09-.89-.84.68.24.73.05,1.37l-.7,0a29.33,29.33,0,0,0,0,4.5c-.2-.1-.39-.39-.62-.05a32.37,32.37,0,0,1-.5,6l.64.65c0,.16-.24.33-.37.16-.15.74.37,0,.64.32.09.39-.26.57-.47.33.63,1.22,1.59,3.34,1.28,4.74l-.22-.21c0,1.07,1.44.83,1.14,1.87l-.15-.15c.32,2.21,1.64,4.31,1.41,6.16.91,0,.46,2.15,1.61,1.81-.05,1.36-.39,1.13,0,2.88.14.44.95.32,1.3.78l-.55.28.91.42-.49.69.37.41a.52.52,0,0,1,.23-.57,2,2,0,0,1,.21,2.17l1.32,1.54c-.24.06-.46-.19-.72-.36,1,.67-.5.46.44,1.06.07-.17.36-.09.48-.13a3.39,3.39,0,0,0,.82,2.21l-.45,0c.52,1.34,1.49,2.63,2.13,4.09a.51.51,0,0,1,.92-.39l-.51.44c.49.11,0-.55.72-.18.18.57-.51.66-.84.44l.5.56c-.17.12-.33,0-.57.07.49.11-.11,1.39.7,1.5l-.17.11c.59,1.45,1.05,2,1.52,3.21.54-.17.58.34,1.14.56a17,17,0,0,0,.34,3.14c.48.68.52.09.94.35-.48.19-.12,1.25-.64.79a20.94,20.94,0,0,0,1.24,3.24c.17-.22.21-.45.41-.37.14.29-.07.74-.32.74l-.07-.08c.61.87.35,2.06.15,3.15a3.57,3.57,0,0,0,.21,2.82l-.06-.08.64,1.55c-.05.73-.41-.42-.69.13a3.33,3.33,0,0,1,.42,2.16,3.8,3.8,0,0,0,.09,1.94c-.78.54-.71,1.49-.71,2.5a4.5,4.5,0,0,1-.45,2.77l.36-.05c.32.42-.24.44-.34.71.27,0,.35-.38.52-.12a16.65,16.65,0,0,1-.86,4.88l-.89,2.38-.43,1.18-.47,1.16c-.41,1.13,1.6,1.14.37,2.39l-.52-.6a8.94,8.94,0,0,1-.76,3.65c-.21.59-.42,1.17-.59,1.76a8.44,8.44,0,0,0-.43,1.8c-.09-.19-.27-.27-.18-.48-.64.29-.72,1.72-.36,1.88-.18.33-.36-.05-.63.08-.43.37.05,1.42-.5,1.47-.09,0-.08-.19-.07-.29.07.39-.71,1.37-.07,1.31-.62.71-.5,1.68-1.11,2.18.33.7-1,1.23-.29,1.77-.77-.48-1.39,1.05-1.29,1.76-.15-.3-.48.3-.7-.08-.32.56-.49,1.15,0,1.29-1.54.47-.51,2.53-2,2.37-.33.94-.69,1.82-1.06,2.67a19.55,19.55,0,0,1-1.22,2.42c-.34-.29-.07-.69.19-1.07s.46-.79.06-1c-.62,1.58-.64,2.77-1.8,4-.35.26-.16-.44-.19-.65-.68,1.58-2.1,2.42-2.66,3.88-.06,0,0-.24,0-.4-.16.25-.53.43-.2.68l.1-.29c.75,0,.19,1.71.36,1.95-.53-1.15-1.22.89-1.78-.69a.52.52,0,0,0,.14.65c-.26.16-.44.12-.47-.31-.54.92,0,.95-.63,1.64-.14-.14-.06-.34-.17-.57a1.92,1.92,0,0,1-.77,1.71c0-.12-.23-.16-.06-.33-.93,1-.95,2.39-2.29,3.2-.28-.94-.57.15-1.15-.34l-.45.7.49.05c-.53.47-.64,1.3-1.26,1.53l.19-.58-.9,1,.75-.3c-.28.78.69.66-.16,1.15.09-.19-.54.48-1.12.38h0a1.33,1.33,0,0,1-.76,1c-.27-.1-.45-.71-.62-.77.13.7-1.18,1.21-1.1,2a.78.78,0,0,0-.31-.55l.09.58c-.36.09-.45,0-.6-.22-.85.54.85.54-.35.95,0-.09,0-.12.07-.3-1.07.57-1.63,1.67-2.65,2.15-.7-.41.65-.74,0-1-1.15,1.08-2.1,2.65-3.44,3.42l.27-.1c.44,1-1.23.23-1.59,1.06.11-.17-.12-.62-.1-.5-1,.44-1.62,1.42-2.78,2.56l0-.33a13.7,13.7,0,0,0-2.09,1c0,.34-.38.5,0,.72-2.53-.22-3,2.72-5.19,2.54.18-.12.33-.47.18-.39-.41.34-.83.65-1.24,1,.33.34.32.15.78.3a1.37,1.37,0,0,1-.67.92c.47-.6-.36-.65-.75-.73.11.1.09.29.19.4-1.11-.33.32.88-.93.93l-.06-.24c-.31.31-.5.78-.92.93-.42-.38.27-.43.09-.84-.54.34-.64,1.48-1.39,1.27.17-.26.51-.43.68-.69a1.42,1.42,0,0,0-1.29,0h0l-1.08.23.32,0c-.08,1.59-1.31,1-1.87,2.24.55-1.22-.07-.52-.26-1.1-.32,0-.78,0-.74-.23-.24.66-.93,0-1.25,1-.12-.17-.5.21-.6-.28-.53.42.28.24.34.48-.63,1.05-2.48.28-3.42,1.7-1,.85-.93,1.56-1.87,2.32-.48-.13,0-.77,0-.77a2,2,0,0,0-1.58.65c0-.2-.13-.29-.38-.42-.42.24,0,.78-.71.76a2.75,2.75,0,0,1,.14-.9c-.45.38-.82.93-1.29,1.32-.28-.25.12-.61.23-.9-.54.41-1.45.93-1.44,1.51l.46,0c-.21.11-.28-.38-.16-.54.36-.6.82-.13.93,0l-.34.27c.83.9,1.47-.82,2.27-1.08v.9l.52-1c.26.13.55.51.22.78.72.14.37-.48,1-.26.08,0,.08.09,0,.14l.45-.46c0,.21.32.5-.06.54,1.17,0,1.31-1.27,1.93-.86l-.06.09c1.22-.86-.12-.62.58-1.72l1.31,1.06-.13-.61c.15,0,.44-.12.49.12.34-.61-.19-.2-.06-.69.89.19,1.7-1.11,2.26-.3,0-.53-.78,0-.22-.65.66.85.74-.55,1.55-.4,0,.57-.65.59.17.73,0-1,1.25-.39,1.68-.81-.3-.66,1-.82,1.69-1.47.06.25,1.76-.45,2.66-.65l0,.12c-.2-.73.67-1,1.17-1.49a.81.81,0,0,1-.05,1l.55-.3a1,1,0,0,1,.44-.75l.13.56c.72-.42,1.13-1.4,2.23-1.61-.2-.47-1.44-.81-.64-1.67.17.22.45.61.25.85.06-.08.18-.37.41-.36l-.16.63c.53-.07,0-.47.38-.62.2.34.39.09.5.39-.06.08-.37,0-.42.24a1.82,1.82,0,0,1,1.29-.06c-.14-.17-.27-.45,0-.66.7-.45.49.26,1,.18,0-.34.63-.37.33-.88.21-.13.39.08.55.17.23-.45,1.67-1.13.92-1.4l-.11,0,0-.06h0c.89-1.22,2.63-1.31,3.65-2.29l.11.17c.57-.65,1.46-1.15,1.69-1.85.2-.14.68,0,.73.21.44-.49.36-.72,1.3-1-.32.65.36.12-.38.59.77-.35,1.11-.2,1.51-1.16.06.59.88.13,1.1-.23l-.68.07a4.14,4.14,0,0,1,1-.74l.24.66c1.85-.42,1.58-2.95,3.42-2.75,0-.65-.92.34-1-.34.65-.43,1.89-.22,2.09-.38,1.06-.42.14-1.37,1.15-1.92-.26-.08-.78-.47-.31-1.2.63-.45,1.37.1,1.13.58-.12.14-.24.14-.29.08-.13.23-.31.53.09.52l-.08-.25c.45-.08,1.23-.83,1.31-.37.29-.57-.08-.46-.48-.25,1-.43,1.17-1,2.09-1.59-.2,0-.51-.08-.39-.19,1.29-.85.17-.79.82-1.59.67-.15.46.77,1-.18.63-.27.55.35.5.67.35-1,1.48-1,1.92-1.38-.06.17-.14.34-.21.5a2.43,2.43,0,0,1,.47-.66l-.54-.11c.26-.16.44-.35.57-.21,0-.43-.72-.37-.63-1.1.45-.12.62-1,1.17-.72-1,.76.56.33-.07,1.17a1.18,1.18,0,0,1,.51-.54c.08,0,.07.12,0,.2,1.22-.49-.15-.88.68-1.77a.47.47,0,0,0,.78,0c-.34.36-.6-.21-.51-.73.72-.42.4-.79.68-1.08l-.39.27c-.17-.35.11-.61.38-1.1.24.14-.17.5,0,.43-.09-.86,1.38-.63,1.6-1.54.44-.15.54.39.89.23.23-1,1-.52,1.32-1.55-.55-.06-.49.05-.43-.79l-.73,1.51.09-1.27c-.3.39-.39,1-.64,1.2,0-.64.06-.52-.39-.58,1-.1.48-1.31,1.33-1.63l.93.73c1.14-.63.78-2,1.86-3.12l-.44.28c-.27-.43.47-.81.59-1.32.31.25.6.08.92,0-.26-.14.66-.91.07-1.46l.79-.3c.83-.94-.23-1.79.49-2.72.19.52.71.2.56,1,.21-.34.46-.6.22-.75.33-.08.12-1.19.61-1.33-.07-.23-.41-.48-.17-.86a.27.27,0,0,1,.17.1c-.17-.1.09-.74-.47-.61,1.64-.48,1.53-3,2.88-3.49.25-.84.57-1.83.87-2.54.09.09.18.08.08.2.79-.83-.76-1.05.07-2,.83-.33.08.74.45.47,1.26.34.39-1.44,1.4-1.92v.21c.65-.43.14-1.6.53-2.55a.26.26,0,0,0,.19.07,6.4,6.4,0,0,1-.05-3.2c.39.44.11.51.67.49.07-.45-.83-.13-.69-1,.34-.19.74-.73,1.29-.66l-.19.82c.79-.22.26-1.06.5-1.45l.28.14c.24-1.28-.51-1.49-.09-2.8l-.27.08c-.57-.91.56-.51.16-1.37l.82,0a16.35,16.35,0,0,1-.36-2.75,7,7,0,0,1,.76,2.39c.11-.49.29-1.67,0-2,0,.21.17.49,0,.66a3.41,3.41,0,0,1-.46-2.5c1.48.42.75-2.46,2-3a6.28,6.28,0,0,1,.13-2.66,10.92,10.92,0,0,0,.43-2.87c-1.2.69,0-.6-1.25-.51-.07-.47,0-.65,0-.69l.75-1.43c.36-.34.26.45.54.41.1-1,.52-.44.85-1.15-.43.15-.61-.35-.48-1-.18.29-.34.57-.54.86-.7-1.44,1-1.31.25-2.77l.41.45c-.27-.75-.13-2.84-1.25-3.47.13-.15.44-.36.57,0a10.6,10.6,0,0,0-.76-2.81,5,5,0,0,1-.52-2.52l.32.08c-.16-.32-.67-.47-.46-.94.12,0,.32.07.3-.09s-.69-.77-.61-1.25l.41.3c0-1.84-1.52-2.43-2.1-3.77.85-.26.72-1.69.61-2.4l.12,0c-.59-2-1.9-3-3-4.61.43-1.47-1.24-3.77-1.56-5.66,0,.32-.63.25-.86,0,0-.47-1.07-.81-.31-1.1l.06.14c.57-.63,0-1.35-.29-2l-1,.36c.59-2.29-2.56-4-1.71-5.48-.43-.28-.64-.76-1.05-1l.52-.21a14.33,14.33,0,0,0-1.19-3l.48.12c-.26-.76-1.91-.34-2.21-1l.71-.51c-.54-1.34-.26-2.89-1.39-4,.13,0,.38,0,.48.17-.19-.64-.1-2.58-1.18-2.08.74-.2-.26-1.42-.71-2.12l.57,0c-.81-.5-1-.49-1.35-1.36,0-.22.41-.25.31,0,.2-.74-.6-.48-.42-1.38l.4.28c-.06-.73-.23-.65-.68-1a1.21,1.21,0,0,1,.54-1.54c-.31-.08-.74-.47-.61-.91.19-.06.32.1.38.17.33-1.2-.65-1.82-.07-2.64a.48.48,0,0,0,.35-.12,13.73,13.73,0,0,1-.15,1.65c.51,0,.62-.75,1.32-.14a10.09,10.09,0,0,1-.7-1.16,1.62,1.62,0,0,1-.16-1.25.68.68,0,0,1,.19-.08l0,.08a.64.64,0,0,0,0-.47,1.79,1.79,0,0,0,.24-.58c.45,0,.33-.81.45-1.16-.56-.08-.37-.55-.92-.18.05-.06.05.08,0,.33a.43.43,0,0,0,0,.17l0,0-.1.94c-.24-.33-.43-.7-.06-1.06a7.7,7.7,0,0,1-.78-.71c.87-.38,1.51-1.24,2-1.23a12.42,12.42,0,0,1,.23-1.86,3,3,0,0,0-.22-1.8c0-.36.43-.21.63-.25,0,.22-.09.41,0,.57,0-.73.8-1.75.25-2.27.72-.55.33.75.83-.27l.11.24a2,2,0,0,0,1-1.06,7.65,7.65,0,0,0,.53-1.37,2.57,2.57,0,0,1,2.36-2c-.19,0-.29,0-.39,0,1.34-.58,2.56-1.35,3.88-2a9.38,9.38,0,0,1,2.09-.71,7.76,7.76,0,0,1,1.08-.12,5.75,5.75,0,0,1,1.08.16c.79.09.83-.32,1.31-.7l.19.59c.26-.22.55-.5.83-.69a1.68,1.68,0,0,1,1.6.6,2.32,2.32,0,0,0,.75.51,1.12,1.12,0,0,0,.45.07,1.56,1.56,0,0,0,.55,0l-.06-.45a7.78,7.78,0,0,0,1,.31c.34.1.54.3.4.47.08,0,.34-.3.43,0l-.13.29a5.9,5.9,0,0,1,1.39.2c.35.39.12.62,0,.86s-.24.47.22.94c.41.23,1.69.37,1.72.11a.61.61,0,0,1,0-.77l.5.26c.75-.57,1.87-.79,1.21-2.37-.4-.12-.78-.26-1.18-.34v-.56a4.67,4.67,0,0,1,.74.59c-.09-.71-.65-.61-1.09-.62a.8.8,0,0,0-.09-.68,8,8,0,0,0-1.38.15c.07-.38.81-.39.25-.91-.65.12,0,.93-.83.79-.25-.61,0-.86-.68-.81,0-.25.2-.34.47-.32-.6,0-1.41-.41-1.83,0-.34-.73-1.75-.32-1.51-1.17a3.94,3.94,0,0,1-1.53.48c1-1-1.8-.24-1.53-1.31a2.11,2.11,0,0,1-1.6.68,4.87,4.87,0,0,0-1.89.53c.05-.08.15-.25.26-.21a4.65,4.65,0,0,1-1.34-.31c.08.8-.86,1.17-1.21,1.8-.95-.48.18-1-.24-1.65.2.6-1.13,1-.7,1.46-.72-.25-.56,0-1.09-.55.26.94-.46.38-.68,1.14-1-.08-.6-.76-1.34-.06C471.44,62.15,472,61.41,472.06,61.43ZM461.7,80.64h0v0Zm-.1,1.79c0-.22,0-.49,0-.78.2-.05.4,0,.37.21C461.89,81.76,461.77,82.17,461.6,82.43Zm4.21-3.16c0,.26-.08.32-.2.34a3.2,3.2,0,0,0,0-.44l-.06,0A.92.92,0,0,1,465.81,79.27Z"/><path class="cls-1" d="M465.15,78.7s0-.06,0-.11a.64.64,0,0,0-.15.13l.16.12Z"/><path class="cls-1" d="M435.7,214.45h0a.23.23,0,0,1-.11,0S435.68,214.44,435.7,214.45Z"/><polygon class="cls-1" points="466.5 106.24 466.63 106.18 466.45 106.09 466.5 106.24"/><path class="cls-1" d="M426.61,217.55a.38.38,0,0,0-.18-.07A.35.35,0,0,0,426.61,217.55Z"/><path class="cls-1" d="M423,219.33l-.6.09A2.46,2.46,0,0,0,423,219.33Z"/><path class="cls-1" d="M420.09,220.49a.67.67,0,0,0,.05.24h0Z"/><path class="cls-1" d="M458.82,191a.27.27,0,0,0,.06-.1C459,190.63,458.89,190.8,458.82,191Z"/><path class="cls-1" d="M449.44,202.24a2.47,2.47,0,0,1,.19-.5C449.4,201.87,449.24,202,449.44,202.24Z"/><path class="cls-1" d="M467.54,177.56h0l.05-.09Z"/><path class="cls-1" d="M450.14,201.29a.82.82,0,0,0-.51.45A1.39,1.39,0,0,0,450.14,201.29Z"/><path class="cls-1" d="M407.71,225.75l-.15,0a.15.15,0,0,1,0,.09Z"/><path class="cls-1" d="M407.58,225.88l-.13.12C407.52,226,407.58,226,407.58,225.88Z"/><path class="cls-1" d="M407.18,226.26l.27-.26C407.34,226.05,407.19,226.08,407.18,226.26Z"/><path class="cls-1" d="M411.6,224.4l0-.2A.46.46,0,0,0,411.6,224.4Z"/><path class="cls-1" d="M412.72,223.85c-.29.08-.86-.1-1.19.18l0,.17C411.62,223.84,412.6,224.29,412.72,223.85Z"/><path class="cls-1" d="M418.54,224l-1,.31c.26.12.61.28.19.54C419.18,224.82,417.25,224.49,418.54,224Z"/><path class="cls-1" d="M421.64,222.82c-.47.35.15.29.18.41C422.05,222.89,422.11,222.8,421.64,222.82Z"/><path class="cls-1" d="M442.12,210.67l.26.45C442.69,210.8,442.26,211,442.12,210.67Z"/><polygon class="cls-1" points="444.18 205.86 443.65 205.86 443.78 206.36 444.18 205.86"/><polygon class="cls-1" points="448.55 207.07 448.44 207.25 448.9 206.63 448.55 207.07"/><path class="cls-1" d="M474,175.83l-.62-.16C473.39,176,474,176.37,474,175.83Z"/><path class="cls-1" d="M479.49,159.19a.63.63,0,0,0,.42-.91C479.79,158.66,479.47,159,479.49,159.19Z"/><polygon class="cls-1" points="473.02 108.18 473.36 108.4 472.92 107.89 473.02 108.18"/></svg>