<svg id="Layer_1" data-name="Layer 1" xmlns="http://www.w3.org/2000/svg" viewBox="0 0 430.01 250.83"><defs><style>.cls-1{fill:#010101;}.cls-2{fill:#333;}.cls-3{fill:#e6e6e5;}.cls-4{fill:#4e4e4e;}.cls-5{fill:#676767;}.cls-6{fill:#ccc;}.cls-7{fill:#989898;}.cls-8{fill:#818181;}.cls-9{fill:#b4b4b4;}.cls-10{fill:#f5c538;}.cls-11{fill:#be9a31;}.cls-12{fill:#a77d52;}</style></defs><title>bike</title><rect class="cls-1" x="123.26" y="133.16" width="0.75" height="76.26" transform="translate(-74.51 244.51) rotate(-74.46)"/><rect class="cls-1" x="117.58" y="147.2" width="0.75" height="76.19" transform="translate(-100.9 166.61) rotate(-52.64)"/><rect class="cls-1" x="106.73" y="156.42" width="0.75" height="76.26" transform="translate(-81.75 77.7) rotate(-29.42)"/><rect class="cls-1" x="92.8" y="162.35" width="0.75" height="76.19" transform="translate(-26.16 14.38) rotate(-7.74)"/><rect class="cls-1" x="40.83" y="198.93" width="76.26" height="0.75" transform="translate(-134.23 221.93) rotate(-74.45)"/><rect class="cls-1" x="26.85" y="193.25" width="76.19" height="0.75" transform="translate(-128.41 127.87) rotate(-52.68)"/><polygon class="cls-1" points="22.67 201.84 89.08 164.35 88.71 163.7 22.3 201.19 22.67 201.84"/><rect class="cls-1" x="11.7" y="168.47" width="76.19" height="0.75" transform="translate(-22.1 8.16) rotate(-7.67)"/><rect class="cls-1" x="50.56" y="116.5" width="0.75" height="76.26" transform="translate(-111.68 162.41) rotate(-74.51)"/><rect class="cls-1" x="56.24" y="102.52" width="0.75" height="76.19" transform="translate(-89.58 100.56) rotate(-52.75)"/><polygon class="cls-1" points="85.89 164.75 86.55 164.38 49.06 97.97 48.4 98.34 85.89 164.75"/><rect class="cls-1" x="81.02" y="87.37" width="0.75" height="76.19" transform="translate(-16.14 12.1) rotate(-7.73)"/><rect class="cls-1" x="57.49" y="126.22" width="76.26" height="0.75" transform="translate(-51.99 184.77) rotate(-74.45)"/><rect class="cls-1" x="71.53" y="131.91" width="76.19" height="0.75" transform="translate(-62.04 139.25) rotate(-52.67)"/><polygon class="cls-1" points="85.86 162.21 152.27 124.72 151.9 124.07 85.5 161.56 85.86 162.21"/><rect class="cls-1" x="86.68" y="156.69" width="76.19" height="0.75" transform="translate(-19.86 18.07) rotate(-7.67)"/><path class="cls-2" d="M25.57,224.68A87.29,87.29,0,1,1,149,101.24,87.29,87.29,0,0,1,25.57,224.68ZM4.92,163A82.37,82.37,0,1,0,87.29,80.59,82.46,82.46,0,0,0,4.92,163Z"/><path class="cls-3" d="M29.69,220.56a81.46,81.46,0,1,1,115.2-115.2,81.46,81.46,0,0,1-115.2,115.2ZM9.54,163A77.75,77.75,0,1,0,87.29,85.21,77.83,77.83,0,0,0,9.54,163Z"/><path class="cls-4" d="M8.8,163a78.49,78.49,0,1,1,78.49,78.49A78.58,78.58,0,0,1,8.8,163Zm3.34,0A75.15,75.15,0,1,0,87.29,87.81,75.24,75.24,0,0,0,12.14,163Z"/><path class="cls-4" d="M80.85,163a6.44,6.44,0,1,0,6.44-6.44A6.43,6.43,0,0,0,80.85,163Z"/><path class="cls-2" d="M281,225.27a87.31,87.31,0,1,1,61.73,25.56A86.75,86.75,0,0,1,281,225.27Zm-20.64-61.73a82.37,82.37,0,1,0,82.37-82.36A82.46,82.46,0,0,0,260.36,163.54Z"/><path class="cls-3" d="M285.13,221.14A81.46,81.46,0,1,1,342.73,245,80.9,80.9,0,0,1,285.13,221.14ZM265,163.54A77.75,77.75,0,1,0,342.73,85.8,77.84,77.84,0,0,0,265,163.54Z"/><path class="cls-4" d="M264.24,163.54A78.49,78.49,0,1,1,342.73,242,78.58,78.58,0,0,1,264.24,163.54Zm3.34,0a75.15,75.15,0,1,0,75.15-75.15A75.24,75.24,0,0,0,267.58,163.54Z"/><rect class="cls-4" x="344.25" y="154.41" width="74.15" height="0.75" transform="translate(-9.63 26.25) rotate(-3.89)"/><rect class="cls-4" x="380.17" y="130.97" width="0.75" height="75.91" transform="translate(131.04 502.24) rotate(-77.12)"/><rect class="cls-4" x="374.94" y="146.67" width="0.75" height="74.34" transform="translate(50.52 446.83) rotate(-65.09)"/><rect class="cls-4" x="367.39" y="159.57" width="0.75" height="73.71" transform="translate(-26.96 330.68) rotate(-46.89)"/><rect class="cls-4" x="362.07" y="161.12" width="0.75" height="74.15" transform="translate(-47.78 149.6) rotate(-21.92)"/><rect class="cls-4" x="348.39" y="163.87" width="0.75" height="75.91" transform="translate(-16.44 31.54) rotate(-5.06)"/><rect class="cls-4" x="295.8" y="201.09" width="74.34" height="0.75" transform="translate(92.62 507.55) rotate(-83.04)"/><rect class="cls-4" x="281.8" y="197.8" width="73.71" height="0.75" transform="translate(4.08 402.77) rotate(-64.92)"/><rect class="cls-4" x="278.26" y="193.28" width="74.15" height="0.75" transform="translate(-50.81 247.32) rotate(-39.89)"/><rect class="cls-4" x="269.69" y="181.39" width="75.91" height="0.75" transform="translate(-46.59 134.83) rotate(-23.03)"/><rect class="cls-4" x="265.94" y="166.25" width="74.34" height="0.75" transform="matrix(0.98, -0.19, 0.19, 0.98, -26.29, 61.11)"/><rect class="cls-4" x="301.45" y="115.15" width="0.75" height="73.71" transform="translate(113.4 432.55) rotate(-82.84)"/><rect class="cls-4" x="304.71" y="110.37" width="0.75" height="74.15" transform="translate(18.11 327.62) rotate(-57.92)"/><rect class="cls-4" x="313.64" y="98.51" width="0.75" height="75.91" transform="matrix(0.75, -0.66, 0.66, 0.75, -12.49, 239.52)"/><rect class="cls-4" x="326.64" y="90.31" width="0.75" height="74.34" transform="translate(-20.81 174.48) rotate(-28.99)"/><rect class="cls-4" x="340.15" y="84.87" width="0.75" height="73.71" transform="translate(-16.88 66.61) rotate(-10.9)"/><rect class="cls-4" x="308.8" y="123.05" width="74.15" height="0.75" transform="translate(141.87 428.78) rotate(-75.89)"/><rect class="cls-4" x="321.12" y="128.15" width="75.91" height="0.75" transform="translate(64.08 370.26) rotate(-59.03)"/><rect class="cls-4" x="334.47" y="137.73" width="74.34" height="0.75" transform="translate(17.29 315.95) rotate(-47.04)"/><rect class="cls-4" x="344.42" y="148.8" width="73.71" height="0.75" transform="translate(-24.6 202.95) rotate(-28.92)"/><path class="cls-4" d="M251.8,135.89s-.26-3.8.66-4.28,4.32-.16,4.84,1.27-.92,2.22-1.44,3.17-2.49.79-2.49.79Z"/><path class="cls-4" d="M234.41,135.89s.26-3.8-.65-4.28-4.32-.16-4.85,1.27.92,2.22,1.44,3.17,2.49.79,2.49.79Z"/><path class="cls-2" d="M255.71,139.46a19.24,19.24,0,0,0-4.05,1.6H232.91c-.57-.94-2.17-1.25-3.11-1.62l-2.54-1a3,3,0,0,1-1.78-2.22,1.91,1.91,0,0,1,1.78-1.77l5.67-.72a35.55,35.55,0,0,1,3.72-.24h13.6a30.73,30.73,0,0,1,3.72.27l4.59.66a2,2,0,0,1,1.77,1.8,2.87,2.87,0,0,1-1.79,2.19Z"/><path class="cls-2" d="M244.59,132c3.74,1.17,3.25,4,3.51,6.79.23,2.58-2.53,9.61-4.45,14.76-2.15,5.75-4.07,19.4-4.22,22.95-.23,5.63,1.39,6.78-2.1,10.55-3.05,3.27-10.08,1.4-11.25-1.88s-1.64-7,1.17-10.78,6.56-19.44,7-24.35,2.11-13.12,3.28-14.76S240.84,130.81,244.59,132Z"/><path class="cls-2" d="M220.87,229.45c-3.75-1.17-3.26-4-3.51-6.79-.24-2.58,2.52-9.62,4.45-14.76,2.15-5.75,4.06-19.4,4.21-23,.24-5.63-1.38-6.78,2.11-10.55,3.05-3.27,10.07-1.4,11.24,1.88s1.64,7-1.17,10.77-6.56,19.45-7,24.36-2.11,13.12-3.28,14.76S224.62,230.62,220.87,229.45Z"/><path class="cls-5" d="M228.13,180.49a4.45,4.45,0,1,0,4.45-4.45A4.46,4.46,0,0,0,228.13,180.49Z"/><path class="cls-2" d="M218.06,223.45a4.85,4.85,0,1,0,4.84-4.91A4.88,4.88,0,0,0,218.06,223.45Z"/><path class="cls-4" d="M231.8,222.56s-.26-3.81.66-4.28,4.32-.16,4.84,1.27-.92,2.22-1.44,3.17-2.49.79-2.49.79Z"/><path class="cls-4" d="M214.41,222.56s.26-3.81-.65-4.28-4.32-.16-4.85,1.27.92,2.22,1.44,3.17,2.49.79,2.49.79Z"/><path class="cls-2" d="M235.71,226.13a19.16,19.16,0,0,0-4.06,1.59H212.9c-.56-.93-2.16-1.24-3.1-1.62l-2.54-1a2.9,2.9,0,0,1-1.78-2.21,1.91,1.91,0,0,1,1.78-1.77l5.66-.73a35.73,35.73,0,0,1,3.73-.23h13.6a30.87,30.87,0,0,1,3.72.27l4.58.66a2,2,0,0,1,1.78,1.8,2.85,2.85,0,0,1-1.79,2.18Z"/><path class="cls-3" d="M214.31,223.45c0,.62.71,1.12,1.59,1.12h14c.87,0,1.59-.5,1.59-1.12s-.72-1.1-1.59-1.1h-14C215,222.35,214.31,222.85,214.31,223.45Z"/><path class="cls-4" d="M337.72,195.93a1.68,1.68,0,0,1,1.24.43l.7,0a1.7,1.7,0,0,1,2.93.92,1.52,1.52,0,0,1-1.51,1.63,1.8,1.8,0,0,1-1.24-.43l-.71,0A1.58,1.58,0,0,1,338,199a1.66,1.66,0,0,1-1.77-1.46A1.52,1.52,0,0,1,337.72,195.93Z"/><path class="cls-4" d="M331.89,196.21a1.76,1.76,0,0,1,1.23.43l.71,0a1.58,1.58,0,0,1,1.15-.55,1.68,1.68,0,0,1,1.78,1.47,1.53,1.53,0,0,1-1.52,1.62,1.8,1.8,0,0,1-1.24-.42l-.7,0a1.7,1.7,0,0,1-2.93-.92A1.53,1.53,0,0,1,331.89,196.21Z"/><path class="cls-4" d="M326.05,196.5a1.67,1.67,0,0,1,1.23.43l.71,0a1.62,1.62,0,0,1,1.15-.55,1.68,1.68,0,0,1,1.78,1.48,1.54,1.54,0,0,1-1.52,1.62,1.72,1.72,0,0,1-1.23-.43l-.71,0a1.64,1.64,0,0,1-1.16.55,1.67,1.67,0,0,1-1.77-1.48A1.53,1.53,0,0,1,326.05,196.5Z"/><path class="cls-4" d="M320.21,196.78a1.72,1.72,0,0,1,1.23.43l.71,0a1.62,1.62,0,0,1,1.16-.54,1.66,1.66,0,0,1,1.77,1.46,1.54,1.54,0,0,1-1.52,1.63,1.72,1.72,0,0,1-1.23-.43l-.71,0a1.63,1.63,0,0,1-1.16.54,1.66,1.66,0,0,1-1.77-1.47A1.53,1.53,0,0,1,320.21,196.78Z"/><path class="cls-4" d="M314.37,197.06a1.72,1.72,0,0,1,1.23.43l.71,0a1.62,1.62,0,0,1,1.16-.55,1.67,1.67,0,0,1,1.77,1.47,1.53,1.53,0,0,1-1.52,1.62,1.67,1.67,0,0,1-1.23-.43l-.71,0a1.66,1.66,0,0,1-1.15.55,1.68,1.68,0,0,1-1.78-1.47A1.54,1.54,0,0,1,314.37,197.06Z"/><path class="cls-4" d="M308.53,197.34a1.8,1.8,0,0,1,1.24.43l.7,0a1.7,1.7,0,0,1,2.93.92,1.54,1.54,0,0,1-1.52,1.63,1.78,1.78,0,0,1-1.23-.43l-.71,0A1.69,1.69,0,0,1,307,199,1.55,1.55,0,0,1,308.53,197.34Z"/><path class="cls-4" d="M302.69,197.63a1.75,1.75,0,0,1,1.24.42l.7,0a1.62,1.62,0,0,1,1.16-.55,1.66,1.66,0,0,1,1.77,1.46,1.52,1.52,0,0,1-1.52,1.63,1.67,1.67,0,0,1-1.23-.43l-.71,0a1.61,1.61,0,0,1-1.15.54,1.67,1.67,0,0,1-1.78-1.46A1.54,1.54,0,0,1,302.69,197.63Z"/><path class="cls-4" d="M296.85,197.91a1.79,1.79,0,0,1,1.24.43l.7,0a1.62,1.62,0,0,1,1.16-.55,1.65,1.65,0,0,1,1.77,1.47,1.52,1.52,0,0,1-1.51,1.62,1.7,1.7,0,0,1-1.24-.43l-.7,0a1.7,1.7,0,0,1-1.16.55,1.67,1.67,0,0,1-1.77-1.47A1.53,1.53,0,0,1,296.85,197.91Z"/><path class="cls-4" d="M291,198.2a1.72,1.72,0,0,1,1.24.42l.71,0a1.69,1.69,0,0,1,2.93.92,1.55,1.55,0,0,1-1.52,1.63,1.76,1.76,0,0,1-1.23-.43l-.71,0a1.69,1.69,0,0,1-2.93-.92A1.53,1.53,0,0,1,291,198.2Z"/><path class="cls-4" d="M285.18,198.48a1.67,1.67,0,0,1,1.23.43l.71,0a1.61,1.61,0,0,1,1.15-.54,1.67,1.67,0,0,1,1.78,1.46,1.54,1.54,0,0,1-1.52,1.63,1.71,1.71,0,0,1-1.24-.43l-.7,0a1.63,1.63,0,0,1-1.16.54,1.66,1.66,0,0,1-1.77-1.46A1.54,1.54,0,0,1,285.18,198.48Z"/><path class="cls-4" d="M279.34,198.76a1.72,1.72,0,0,1,1.23.43l.71,0a1.6,1.6,0,0,1,1.15-.55,1.67,1.67,0,0,1,1.78,1.47,1.55,1.55,0,0,1-1.52,1.63,1.72,1.72,0,0,1-1.23-.44l-.71,0a1.69,1.69,0,0,1-2.93-.92A1.54,1.54,0,0,1,279.34,198.76Z"/><path class="cls-4" d="M273.5,199a1.8,1.8,0,0,1,1.24.43l.7,0a1.6,1.6,0,0,1,1.16-.54,1.66,1.66,0,0,1,1.77,1.46,1.54,1.54,0,0,1-1.52,1.63,1.72,1.72,0,0,1-1.23-.43l-.71,0a1.62,1.62,0,0,1-1.15.55,1.68,1.68,0,0,1-1.78-1.47A1.55,1.55,0,0,1,273.5,199Z"/><path class="cls-4" d="M267.66,199.33a1.76,1.76,0,0,1,1.24.43l.7,0a1.63,1.63,0,0,1,1.16-.54,1.66,1.66,0,0,1,1.77,1.46,1.53,1.53,0,0,1-1.52,1.63,1.67,1.67,0,0,1-1.23-.43l-.71,0a1.61,1.61,0,0,1-1.15.54,1.67,1.67,0,0,1-1.78-1.46A1.54,1.54,0,0,1,267.66,199.33Z"/><path class="cls-4" d="M261.82,199.61a1.79,1.79,0,0,1,1.24.43l.7,0a1.62,1.62,0,0,1,1.16-.55,1.68,1.68,0,0,1,1.78,1.47,1.54,1.54,0,0,1-1.53,1.62,1.69,1.69,0,0,1-1.23-.43l-.71,0a1.57,1.57,0,0,1-1.15.54,1.67,1.67,0,0,1-1.78-1.46A1.55,1.55,0,0,1,261.82,199.61Z"/><path class="cls-4" d="M256,199.9a1.72,1.72,0,0,1,1.24.42l.7,0a1.69,1.69,0,0,1,2.93.92,1.53,1.53,0,0,1-1.51,1.63,1.77,1.77,0,0,1-1.24-.43l-.7,0a1.69,1.69,0,0,1-2.93-.92A1.53,1.53,0,0,1,256,199.9Z"/><path class="cls-4" d="M250.15,200.18a1.72,1.72,0,0,1,1.23.43l.7,0a1.71,1.71,0,0,1,2.94.92,1.54,1.54,0,0,1-1.52,1.63,1.74,1.74,0,0,1-1.24-.42l-.7,0a1.69,1.69,0,0,1-2.93-.92A1.54,1.54,0,0,1,250.15,200.18Z"/><path class="cls-4" d="M244.31,200.46a1.76,1.76,0,0,1,1.23.43l.71,0a1.58,1.58,0,0,1,1.15-.55,1.68,1.68,0,0,1,1.78,1.47,1.54,1.54,0,0,1-1.52,1.63,1.8,1.8,0,0,1-1.24-.43l-.7,0a1.62,1.62,0,0,1-1.16.55,1.67,1.67,0,0,1-1.77-1.47A1.54,1.54,0,0,1,244.31,200.46Z"/><path class="cls-4" d="M238.47,200.75a1.76,1.76,0,0,1,1.24.43l.7,0a1.62,1.62,0,0,1,1.16-.54,1.66,1.66,0,0,1,1.77,1.46,1.54,1.54,0,0,1-1.52,1.63,1.8,1.8,0,0,1-1.24-.43l-.7,0a1.61,1.61,0,0,1-1.16.55,1.66,1.66,0,0,1-1.77-1.47A1.53,1.53,0,0,1,238.47,200.75Z"/><path class="cls-4" d="M232.63,201a1.76,1.76,0,0,1,1.24.43l.7,0a1.6,1.6,0,0,1,1.15-.55,1.66,1.66,0,0,1,1.78,1.46A1.54,1.54,0,0,1,236,204a1.67,1.67,0,0,1-1.23-.43l-.71,0a1.61,1.61,0,0,1-1.15.54,1.67,1.67,0,0,1-1.78-1.46A1.54,1.54,0,0,1,232.63,201Z"/><path class="cls-4" d="M226.79,201.31a1.8,1.8,0,0,1,1.24.43l.7,0a1.61,1.61,0,0,1,1.16-.55,1.67,1.67,0,0,1,1.77,1.47,1.54,1.54,0,0,1-1.51,1.63,1.73,1.73,0,0,1-1.24-.44l-.71,0a1.61,1.61,0,0,1-1.15.54,1.67,1.67,0,0,1-1.78-1.46A1.55,1.55,0,0,1,226.79,201.31Z"/><path class="cls-4" d="M221,201.59a1.77,1.77,0,0,1,1.24.44l.7,0a1.7,1.7,0,0,1,2.93.92,1.53,1.53,0,0,1-1.52,1.63,1.78,1.78,0,0,1-1.23-.43l-.71,0a1.61,1.61,0,0,1-1.15.54,1.68,1.68,0,0,1-1.78-1.47A1.55,1.55,0,0,1,221,201.59Z"/><path class="cls-4" d="M343.81,192.63a1.72,1.72,0,0,1,.26,1.14l.35.55a1.62,1.62,0,0,1,.91.72,1.26,1.26,0,1,1-2.08,1.32,1.62,1.62,0,0,1-.26-1.14l-.35-.55a1.74,1.74,0,0,1-.92-.73,1.26,1.26,0,1,1,2.09-1.31Z"/><path class="cls-4" d="M340.93,188.07a1.62,1.62,0,0,1,.26,1.14l.35.55a1.7,1.7,0,0,1,.92.73,1.26,1.26,0,1,1-2.09,1.31,1.72,1.72,0,0,1-.26-1.14l-.34-.55a1.64,1.64,0,0,1-.92-.72,1.4,1.4,0,0,1,.23-1.94A1.38,1.38,0,0,1,340.93,188.07Z"/><path class="cls-4" d="M338.06,183.52a1.65,1.65,0,0,1,.26,1.14l.35.55a1.63,1.63,0,0,1,.91.72,1.26,1.26,0,1,1-2.08,1.32,1.73,1.73,0,0,1-.26-1.14l-.35-.55a1.68,1.68,0,0,1-.91-.73,1.26,1.26,0,1,1,2.08-1.31Z"/><path class="cls-4" d="M342.69,173.21a12.58,12.58,0,0,0-3.43-.49c-1.36.1-2.44.68-3.81,2.45a10.81,10.81,0,0,0-1.76,6.35c0,2,.65,3.41,2.12,3.59,2.09.26,4.89-.29,4.3-2s-2.08-1.7-2.08-4.83c0-3.43,1.63-4.05,2.9-3.85s2.35.49,2.35.49l.58-1.18Z"/><path class="cls-5" d="M340.5,182.37s2.61-1.83,4.31-3.13a14.36,14.36,0,0,0,3-3.52l5.21,2.87a25.67,25.67,0,0,1-2.49,1.36,2.09,2.09,0,0,1,.28,1.05,2.15,2.15,0,0,1-4.27.38l-.43.08Z"/><path class="cls-4" d="M347.15,181a1.37,1.37,0,1,0,1.37-1.37A1.37,1.37,0,0,0,347.15,181Z"/><path class="cls-2" d="M355.62,169.3l-5.8-.2-.53-4.13-7.35,1.58,2.83,4.24a5.6,5.6,0,0,0,1.59,1.89,3.08,3.08,0,0,0,2.81.8c.84-.1,4.48-.1,4.48-.1s1.69-.6,2-1.79A5.35,5.35,0,0,0,355.62,169.3Z"/><path class="cls-5" d="M343.21,172.62s-4.11,2.84-5,3.72-2.83,2.83-2.35,4a4.46,4.46,0,0,0,3.2,2.67,11.55,11.55,0,0,0,4.17-.13,43.16,43.16,0,0,0,4.18-1.69l-.66-.66s-2.59.47-3.26.13c-1.3-.65-.09-1.89.52-2.34a7.8,7.8,0,0,1,4.18-1.44l3.62-1.24s-.78-1.46-3.91-2.34A13.54,13.54,0,0,0,343.21,172.62Z"/><path class="cls-5" d="M355.71,169.93l4.17.26,1.14,1-.09,1.7a29.8,29.8,0,0,0-4.31,1.17c-1,.49-1.63,2.38-2.08,3.78s-.85,3.13-1.73,2.55-1.76-5.22-1.27-7,.39-1.83.39-1.83Z"/><path class="cls-5" d="M352,171.48a2.4,2.4,0,1,0,2.4-2.4A2.4,2.4,0,0,0,352,171.48Z"/><polygon class="cls-2" points="358.32 170.06 360.53 167.22 362.39 168.1 361.22 171.62 358.32 170.06"/><path class="cls-6" d="M346,170.84a1.71,1.71,0,1,0,1.71-1.71A1.71,1.71,0,0,0,346,170.84Z"/><path class="cls-4" d="M347.21,170.84a.55.55,0,1,0,.54-.55A.55.55,0,0,0,347.21,170.84Z"/><path class="cls-4" d="M352.65,171.75a1.76,1.76,0,1,0,1.76-1.76A1.75,1.75,0,0,0,352.65,171.75Z"/><path class="cls-2" d="M353.49,171.75a.92.92,0,1,0,.92-.91A.92.92,0,0,0,353.49,171.75Z"/><path class="cls-7" d="M344.55,177c.13,1,2.87.65,5.21,2.21,1.62,1.08,2.06,2.84,3,2.84s1.76-1.08,1-2.84-1-3.52-1.86-3.72a17.31,17.31,0,0,0-4.37.2C346.18,175.91,344.42,176,344.55,177Z"/><path class="cls-4" d="M335.57,195a3.85,3.85,0,1,0,3.84-3.85A3.84,3.84,0,0,0,335.57,195Z"/><path class="cls-4" d="M336.22,190.19l-2.35,2.08a7.13,7.13,0,0,0-.26,2.22c.13.78-.27.68.39,1.17,1.57,1.18,3.78-.65,3.78-.65l-.39-1.43-2.09-.39a10.94,10.94,0,0,1,.66-1.31,4.13,4.13,0,0,1,1.43-1.17l1-.13-.52-.78Z"/><path class="cls-4" d="M339.16,201.56a5.68,5.68,0,0,0,3.52-1.43l.17-.12c1-.76,1.17-2.89,1.19-3.53l-1.56-.07a4.72,4.72,0,0,1-.57,2.34l-.18.14a3.7,3.7,0,0,1-3.48,1,3.75,3.75,0,0,1-2.49-2l2.88-3-1.13-1.09L334,197.49l.11.42a5.19,5.19,0,0,0,3.75,3.46A5,5,0,0,0,339.16,201.56Z"/><path class="cls-5" d="M334.59,182.36l1.66,4.11.88,5.57a3.34,3.34,0,0,0-1.17,3c.39,1.66.88,2,2.73,2.12a20.43,20.43,0,0,0,2.84,0l3.72,5.18,1.86-1.36-11.35-19Z"/><path class="cls-3" d="M337.23,194.83a1.22,1.22,0,1,0,1.22-1.22A1.22,1.22,0,0,0,337.23,194.83Z"/><path class="cls-5" d="M337.65,194.82a.72.72,0,0,0,1.44,0,.72.72,0,1,0-1.44,0Z"/><path class="cls-4" d="M338.94,179.37a13.39,13.39,0,0,0,1.69-.13c.54-.08,2.48-.65,2.48-.65s-.26,2.35-1,2.74a3.31,3.31,0,0,1-2.74-.13C338.81,180.81,338.94,179.37,338.94,179.37Z"/><path class="cls-8" d="M348.73,160.07l-7.88,3.1s-1.21.35-1.21,1.22,1,1.84,1.61,2.35,2.65.58,4,.58,4,.23,4.49-.81a6.2,6.2,0,0,0,0-4.37A7,7,0,0,0,348.73,160.07Z"/><path class="cls-4" d="M343.25,164.12a1.93,1.93,0,1,0,1.93-1.92A1.92,1.92,0,0,0,343.25,164.12Z"/><path class="cls-2" d="M344.25,164.12a.93.93,0,1,0,1.85,0,.93.93,0,0,0-1.85,0Z"/><path class="cls-6" d="M347.45,161.79a.94.94,0,1,0,.94-.93A.94.94,0,0,0,347.45,161.79Z"/><path class="cls-4" d="M347.89,161.79a.5.5,0,0,0,.5.5.5.5,0,0,0,.5-.5.51.51,0,0,0-.5-.5A.5.5,0,0,0,347.89,161.79Z"/><path class="cls-6" d="M347.8,165.59a.94.94,0,1,0,.93-.93A.94.94,0,0,0,347.8,165.59Z"/><path class="cls-4" d="M348.23,165.59a.5.5,0,0,0,.5.5.5.5,0,0,0,.5-.5.5.5,0,0,0-.5-.5A.51.51,0,0,0,348.23,165.59Z"/><path class="cls-6" d="M340.1,164.67a.94.94,0,1,0,.93-.93A.94.94,0,0,0,340.1,164.67Z"/><path class="cls-4" d="M340.53,164.67a.5.5,0,0,0,.5.5.5.5,0,0,0,.5-.5.5.5,0,0,0-.5-.5A.51.51,0,0,0,340.53,164.67Z"/><path class="cls-4" d="M361.78,168.82c.15-.31,3.78-7.58,3.09-13.11s-2.8-10.77-13.47-12a48.69,48.69,0,0,0-11.53.57,30.44,30.44,0,0,1-6.54.44,9.85,9.85,0,0,1-5.22-2.17l-1.06,1.06a11,11,0,0,0,6.08,2.6,29.94,29.94,0,0,0,6.94-.44,47.4,47.4,0,0,1,11.16-.56c9.13,1,11.41,4.83,12.14,10.64.64,5.09-2.9,12.18-2.94,12.25Z"/><path class="cls-5" d="M330.66,172.58a1.35,1.35,0,0,0-1.24-.56c-.12-.22-.23-.45-.33-.68a1.32,1.32,0,0,0,.34-1.28,1.35,1.35,0,0,0-1.14-.77c-.07-.24-.12-.49-.19-.73a1.32,1.32,0,0,0,.56-1.2,1.37,1.37,0,0,0-1-1c0-.25-.06-.5-.08-.75a1.16,1.16,0,0,0,0-2.19c0-.25,0-.51,0-.76a1.29,1.29,0,0,0,.94-.94,1.33,1.33,0,0,0-.58-1.22c0-.25.12-.49.19-.74a1.31,1.31,0,0,0,1.08-.76,1.35,1.35,0,0,0-.38-1.32c.1-.23.22-.45.33-.68a1.31,1.31,0,0,0,1.19-.56,1.34,1.34,0,0,0-.13-1.35c.13-.22.28-.43.42-.63a1.16,1.16,0,0,0,1.39-1.69c.17-.19.34-.38.52-.56a1.3,1.3,0,0,0,1.32-.11,1.34,1.34,0,0,0,.34-1.31l.61-.46a1.32,1.32,0,0,0,1.33.12,1.35,1.35,0,0,0,.56-1.24l.68-.33a1.29,1.29,0,0,0,1.28.34,1.34,1.34,0,0,0,.77-1.13l.73-.19a1.29,1.29,0,0,0,1.2.55,1.34,1.34,0,0,0,.94-1l.76-.07a1.31,1.31,0,0,0,1.09.75,1.3,1.3,0,0,0,1.09-.78l.77,0a1.16,1.16,0,0,0,2.16.35l.74.19a1.29,1.29,0,0,0,.76,1.08,1.34,1.34,0,0,0,1.31-.37c.24.1.46.22.69.32a1.3,1.3,0,0,0,.56,1.19,1.32,1.32,0,0,0,1.35-.13l.63.43a1.16,1.16,0,0,0,1.69,1.38c.18.18.38.34.55.53a1.32,1.32,0,0,0,.12,1.32,1.34,1.34,0,0,0,1.3.34c.16.2.32.4.46.61a1.16,1.16,0,0,0,1.12,1.88c.12.22.23.46.33.69a1.33,1.33,0,0,0-.34,1.27,1.37,1.37,0,0,0,1.14.77c.07.24.12.49.19.74a1.28,1.28,0,0,0-.55,1.19,1.32,1.32,0,0,0,1,.95c0,.25.06.5.08.76a1.16,1.16,0,0,0,0,2.18c0,.25,0,.51,0,.76a1.29,1.29,0,0,0-.94.94,1.33,1.33,0,0,0,.58,1.22c-.05.25-.12.5-.19.74a1.32,1.32,0,0,0-1.07.76,1.34,1.34,0,0,0,.37,1.32c-.1.24-.22.46-.33.68a1.34,1.34,0,0,0-1.19.56,1.32,1.32,0,0,0,.14,1.35c-.14.22-.29.43-.43.63a1.16,1.16,0,0,0-1.39,1.69c-.17.19-.33.38-.52.56a1.16,1.16,0,0,0-1.66,1.42l-.61.46a1.16,1.16,0,0,0-1.88,1.12l-.69.33a1.31,1.31,0,0,0-1.27-.34,1.34,1.34,0,0,0-.77,1.14c-.24.07-.49.12-.73.18a1.16,1.16,0,0,0-2.15.42l-.76.08a1.32,1.32,0,0,0-1.08-.76,1.34,1.34,0,0,0-1.1.78c-.26,0-.51,0-.76,0a1.36,1.36,0,0,0-.94-.94,1.33,1.33,0,0,0-1.23.59c-.25,0-.49-.12-.73-.19a1.35,1.35,0,0,0-.76-1.08,1.36,1.36,0,0,0-1.33.38c-.23-.1-.45-.22-.68-.33a1.29,1.29,0,0,0-.56-1.19,1.32,1.32,0,0,0-1.35.13l-.63-.43a1.31,1.31,0,0,0-.34-1.27,1.35,1.35,0,0,0-1.35-.11c-.19-.17-.38-.34-.55-.52a1.16,1.16,0,0,0-1.43-1.66c-.15-.2-.31-.4-.45-.61A1.35,1.35,0,0,0,330.66,172.58Z"/><path class="cls-4" d="M332.76,153.54A1.78,1.78,0,0,1,334,154l.7,0a1.7,1.7,0,0,1,2.91,1,1.54,1.54,0,0,1-1.56,1.59,1.71,1.71,0,0,1-1.22-.47l-.71,0a1.6,1.6,0,0,1-1.17.52,1.68,1.68,0,0,1-1.74-1.52A1.55,1.55,0,0,1,332.76,153.54Z"/><path class="cls-4" d="M326.92,153.68a1.79,1.79,0,0,1,1.23.46l.7,0a1.63,1.63,0,0,1,1.17-.51,1.68,1.68,0,0,1,1.74,1.51,1.54,1.54,0,0,1-1.56,1.59,1.77,1.77,0,0,1-1.23-.46h-.7a1.64,1.64,0,0,1-1.17.52,1.67,1.67,0,0,1-1.74-1.51A1.54,1.54,0,0,1,326.92,153.68Z"/><path class="cls-4" d="M321.08,153.81a1.76,1.76,0,0,1,1.22.46H323a1.6,1.6,0,0,1,1.16-.52,1.68,1.68,0,0,1,1.74,1.51,1.54,1.54,0,0,1-1.56,1.59,1.74,1.74,0,0,1-1.22-.46l-.71,0a1.63,1.63,0,0,1-1.17.51,1.65,1.65,0,0,1-1.73-1.51A1.54,1.54,0,0,1,321.08,153.81Z"/><path class="cls-4" d="M315.23,154a1.68,1.68,0,0,1,1.23.46l.7,0a1.64,1.64,0,0,1,1.17-.52,1.68,1.68,0,0,1,1.74,1.52,1.53,1.53,0,0,1-1.56,1.58,1.77,1.77,0,0,1-1.23-.46l-.7,0a1.7,1.7,0,0,1-2.91-1A1.52,1.52,0,0,1,315.23,154Z"/><path class="cls-4" d="M309.39,154.08a1.75,1.75,0,0,1,1.22.45h.71a1.6,1.6,0,0,1,1.17-.52,1.67,1.67,0,0,1,1.73,1.51,1.53,1.53,0,0,1-1.56,1.59,1.76,1.76,0,0,1-1.22-.46l-.71,0a1.63,1.63,0,0,1-1.17.51,1.66,1.66,0,0,1-1.73-1.51A1.52,1.52,0,0,1,309.39,154.08Z"/><path class="cls-4" d="M303.54,154.21a1.72,1.72,0,0,1,1.23.45h.7a1.63,1.63,0,0,1,1.17-.51,1.67,1.67,0,0,1,1.74,1.51,1.54,1.54,0,0,1-1.56,1.59,1.8,1.8,0,0,1-1.22-.47l-.71,0a1.6,1.6,0,0,1-1.17.52,1.68,1.68,0,0,1-1.74-1.52A1.53,1.53,0,0,1,303.54,154.21Z"/><path class="cls-4" d="M297.7,154.33a1.8,1.8,0,0,1,1.22.47l.71,0a1.65,1.65,0,0,1,1.17-.51,1.67,1.67,0,0,1,1.74,1.51,1.54,1.54,0,0,1-1.56,1.59,1.73,1.73,0,0,1-1.23-.47l-.7,0a1.63,1.63,0,0,1-1.17.51,1.66,1.66,0,0,1-1.74-1.51A1.55,1.55,0,0,1,297.7,154.33Z"/><path class="cls-4" d="M291.86,154.47a1.76,1.76,0,0,1,1.22.46h.71a1.6,1.6,0,0,1,1.17-.52,1.65,1.65,0,0,1,1.73,1.51,1.54,1.54,0,0,1-1.56,1.59,1.72,1.72,0,0,1-1.22-.47l-.71,0a1.6,1.6,0,0,1-1.17.52,1.67,1.67,0,0,1-1.73-1.52A1.53,1.53,0,0,1,291.86,154.47Z"/><path class="cls-4" d="M286,154.6a1.77,1.77,0,0,1,1.23.46h.7a1.64,1.64,0,0,1,1.17-.52,1.68,1.68,0,0,1,1.74,1.51,1.54,1.54,0,0,1-1.56,1.59,1.73,1.73,0,0,1-1.22-.46l-.71,0a1.65,1.65,0,0,1-1.17.51,1.68,1.68,0,0,1-1.74-1.51A1.54,1.54,0,0,1,286,154.6Z"/><path class="cls-4" d="M280.17,154.74a1.69,1.69,0,0,1,1.22.45h.71a1.62,1.62,0,0,1,1.17-.52,1.67,1.67,0,0,1,1.73,1.51,1.54,1.54,0,0,1-1.56,1.59,1.76,1.76,0,0,1-1.22-.46l-.71,0a1.63,1.63,0,0,1-1.17.51,1.66,1.66,0,0,1-1.73-1.51A1.52,1.52,0,0,1,280.17,154.74Z"/><path class="cls-4" d="M274.33,154.86a1.72,1.72,0,0,1,1.22.47l.7,0a1.64,1.64,0,0,1,1.17-.52,1.68,1.68,0,0,1,1.74,1.52,1.53,1.53,0,0,1-1.56,1.58,1.7,1.7,0,0,1-1.22-.46l-.71,0a1.61,1.61,0,0,1-1.17.51,1.66,1.66,0,0,1-1.74-1.51A1.55,1.55,0,0,1,274.33,154.86Z"/><path class="cls-4" d="M268.48,155a1.79,1.79,0,0,1,1.22.46h.71a1.61,1.61,0,0,1,1.17-.51,1.66,1.66,0,0,1,1.74,1.51,1.54,1.54,0,0,1-1.57,1.59,1.77,1.77,0,0,1-1.22-.47l-.7,0a1.7,1.7,0,0,1-2.91-1A1.54,1.54,0,0,1,268.48,155Z"/><path class="cls-4" d="M262.64,155.12a1.72,1.72,0,0,1,1.22.47l.7,0a1.63,1.63,0,0,1,1.18-.51,1.66,1.66,0,0,1,1.73,1.51,1.54,1.54,0,0,1-1.56,1.59,1.74,1.74,0,0,1-1.22-.46H264a1.59,1.59,0,0,1-1.17.51,1.65,1.65,0,0,1-1.73-1.51A1.55,1.55,0,0,1,262.64,155.12Z"/><path class="cls-4" d="M256.79,155.26a1.72,1.72,0,0,1,1.23.46l.7,0a1.65,1.65,0,0,1,1.17-.51,1.67,1.67,0,0,1,1.74,1.51,1.54,1.54,0,0,1-1.56,1.59,1.79,1.79,0,0,1-1.23-.46h-.7a1.64,1.64,0,0,1-1.17.52,1.68,1.68,0,0,1-1.74-1.51A1.54,1.54,0,0,1,256.79,155.26Z"/><path class="cls-4" d="M251,155.39a1.7,1.7,0,0,1,1.22.46h.71a1.62,1.62,0,0,1,1.17-.52,1.67,1.67,0,0,1,1.74,1.51,1.55,1.55,0,0,1-1.57,1.59A1.76,1.76,0,0,1,253,158h-.71a1.6,1.6,0,0,1-1.16.52,1.68,1.68,0,0,1-1.74-1.51A1.54,1.54,0,0,1,251,155.39Z"/><path class="cls-4" d="M245.1,155.52a1.72,1.72,0,0,1,1.23.46h.7a1.64,1.64,0,0,1,1.17-.52,1.67,1.67,0,0,1,1.74,1.51,1.54,1.54,0,0,1-1.56,1.59,1.74,1.74,0,0,1-1.22-.46h-.71a1.62,1.62,0,0,1-1.17.52,1.65,1.65,0,0,1-1.73-1.51A1.53,1.53,0,0,1,245.1,155.52Z"/><path class="cls-4" d="M239.26,155.65a1.74,1.74,0,0,1,1.22.46h.71a1.57,1.57,0,0,1,1.17-.51,1.66,1.66,0,0,1,1.74,1.5,1.54,1.54,0,0,1-1.56,1.59,1.68,1.68,0,0,1-1.23-.46l-.7,0a1.63,1.63,0,0,1-1.17.51,1.66,1.66,0,0,1-1.74-1.51A1.54,1.54,0,0,1,239.26,155.65Z"/><path class="cls-4" d="M233.42,155.78a1.71,1.71,0,0,1,1.22.47l.71,0a1.6,1.6,0,0,1,1.16-.52,1.68,1.68,0,0,1,1.74,1.51,1.54,1.54,0,0,1-1.56,1.6,1.82,1.82,0,0,1-1.22-.47h-.71a1.57,1.57,0,0,1-1.17.52,1.65,1.65,0,0,1-1.73-1.51A1.54,1.54,0,0,1,233.42,155.78Z"/><path class="cls-4" d="M227.57,155.92a1.72,1.72,0,0,1,1.23.46l.7,0a1.63,1.63,0,0,1,1.17-.51,1.66,1.66,0,0,1,1.74,1.51,1.54,1.54,0,0,1-1.56,1.59,1.83,1.83,0,0,1-1.23-.46h-.7a1.66,1.66,0,0,1-1.17.52A1.68,1.68,0,0,1,226,157.5,1.53,1.53,0,0,1,227.57,155.92Z"/><path class="cls-4" d="M221.73,156.05a1.74,1.74,0,0,1,1.22.46l.71,0a1.59,1.59,0,0,1,1.17-.51,1.65,1.65,0,0,1,1.73,1.51,1.54,1.54,0,0,1-1.56,1.59,1.76,1.76,0,0,1-1.22-.46h-.7a1.64,1.64,0,0,1-1.17.52,1.68,1.68,0,0,1-1.74-1.52A1.53,1.53,0,0,1,221.73,156.05Z"/><path class="cls-2" d="M214.39,184.52c.07.28.14.56.22.84a1.33,1.33,0,1,1,.89,2.41c.12.26.25.52.38.78a1.33,1.33,0,1,1,1.28,2.23c.17.24.35.46.52.69a1.33,1.33,0,1,1,1.66,2c.2.21.41.4.62.6a1.33,1.33,0,1,1,2,1.64c.23.17.46.34.7.5a1.33,1.33,0,1,1,2.25,1.26c.26.13.51.26.78.38a1.53,1.53,0,0,1,1.78-1.14,1.5,1.5,0,0,1,.64,2l.84.22c.17-.9.86-1.53,1.55-1.4a1.5,1.5,0,0,1,1,1.83c.29,0,.58,0,.87.05a1.32,1.32,0,1,1,2.56,0l.86-.08a1.51,1.51,0,0,1,1-1.82,1.49,1.49,0,0,1,1.54,1.34l.83-.22a1.52,1.52,0,0,1,.65-1.95,1.48,1.48,0,0,1,1.74,1l.78-.37a1.3,1.3,0,1,1,2.2-1.3c.24-.17.46-.35.69-.52a1.49,1.49,0,0,1,0-2,1.46,1.46,0,0,1,1.95.35c.21-.2.4-.42.6-.63a1.29,1.29,0,1,1,1.61-2c.17-.23.34-.46.5-.7a1.29,1.29,0,1,1,1.24-2.23c.12-.25.26-.5.37-.77a1.29,1.29,0,1,1,.83-2.41c.08-.27.15-.55.22-.83a1.28,1.28,0,1,1,.43-2.5c0-.29,0-.57,0-.86a1.28,1.28,0,1,1,0-2.54c0-.29,0-.57-.07-.85a1.28,1.28,0,1,1-.48-2.5c-.07-.27-.13-.56-.21-.83a1.28,1.28,0,1,1-.9-2.37c-.11-.26-.24-.52-.37-.77a1.28,1.28,0,1,1-1.27-2.2c-.16-.23-.34-.46-.51-.68a1.27,1.27,0,1,1-1.63-1.94c-.2-.21-.41-.41-.61-.6a1.46,1.46,0,0,1-1.88.26,1.44,1.44,0,0,1-.07-1.88c-.23-.17-.46-.35-.7-.51a1.27,1.27,0,1,1-2.2-1.25c-.26-.12-.51-.26-.78-.37a1.28,1.28,0,1,1-2.39-.86l-.82-.22a1.29,1.29,0,1,1-2.51-.45c-.28,0-.57,0-.85-.06a1.47,1.47,0,0,1-1.27,1.46,1.45,1.45,0,0,1-1.27-1.46c-.29,0-.58,0-.86.06a1.47,1.47,0,0,1-1,1.69,1.45,1.45,0,0,1-1.51-1.24l-.83.22a1.29,1.29,0,1,1-2.4.87c-.26.11-.52.25-.77.37a1.48,1.48,0,0,1-.35,1.95,1.46,1.46,0,0,1-1.87-.69c-.24.16-.46.34-.7.51a1.3,1.3,0,1,1-2,1.64l-.61.6a1.31,1.31,0,1,1-1.64,2c-.17.23-.35.45-.51.69a1.31,1.31,0,1,1-1.27,2.22c-.13.26-.26.52-.38.78a1.32,1.32,0,1,1-.88,2.41c-.08.28-.14.56-.21.84.88.18,1.5.86,1.38,1.54a1.5,1.5,0,0,1-1.84,1c0,.28,0,.57-.06.86a1.32,1.32,0,1,1,0,2.57c0,.28,0,.57.06.86a1.53,1.53,0,0,1,1.87,1C215.92,183.66,215.3,184.35,214.39,184.52Zm3.16-4.71a15.85,15.85,0,1,1,15.85,15.85A15.87,15.87,0,0,1,217.55,179.81Z"/><path class="cls-2" d="M207.76,191.11c.15.36.32.71.49,1.06a1.86,1.86,0,0,1,1.85,3.21l.67,1a1.85,1.85,0,0,1,2.38,2.83c.27.28.55.56.83.83a1.85,1.85,0,0,1,2.82,2.38c.32.24.63.46,1,.68a1.86,1.86,0,0,1,3.2,1.86l1.06.5a1.85,1.85,0,0,1,3.47,1.28c.37.11.75.22,1.13.31a1.86,1.86,0,0,1,3.65.65c.38.05.77.08,1.16.11a1.86,1.86,0,0,1,3.71,0l1.16-.08a1.86,1.86,0,0,1,3.66-.64l1.12-.29a1.86,1.86,0,0,1,3.5-1.26q.54-.22,1-.48a1.87,1.87,0,0,1,3.24-1.86c.32-.21.63-.43.94-.66a1.87,1.87,0,0,1,2.87-2.38c.28-.27.55-.53.82-.81a1.87,1.87,0,0,1,2.42-2.84c.23-.31.45-.62.66-.94a1.87,1.87,0,0,1,1.9-3.23c.17-.34.33-.69.49-1a1.88,1.88,0,0,1,1.3-3.52c.11-.36.21-.73.31-1.1a2.11,2.11,0,0,1-1.49-2.17,2.13,2.13,0,0,1,2.16-1.53c0-.37.07-.75.1-1.13a2.13,2.13,0,0,1-1.86-1.88,2.16,2.16,0,0,1,1.88-1.89c0-.37-.05-.75-.09-1.12a1.89,1.89,0,0,1-.64-3.72c-.09-.37-.19-.73-.29-1.09a1.89,1.89,0,0,1-1.28-3.55c-.15-.34-.31-.69-.47-1a1.89,1.89,0,1,1-1.88-3.28c-.21-.31-.43-.62-.65-.92a1.89,1.89,0,0,1-2.42-2.9l-.79-.79a2.15,2.15,0,0,1-2.66.22,2.12,2.12,0,0,1-.23-2.67l-.91-.65a2.15,2.15,0,0,1-2.59.7,2.13,2.13,0,0,1-.69-2.59c-.33-.17-.67-.32-1-.48a1.89,1.89,0,1,1-3.56-1.3c-.36-.11-.71-.2-1.08-.29a1.89,1.89,0,0,1-3.73-.66q-.56-.06-1.11-.09a1.89,1.89,0,0,1-3.78,0c-.38,0-.75,0-1.12.09a1.89,1.89,0,0,1-3.72.66c-.37.09-.73.18-1.08.29a1.89,1.89,0,0,1-3.55,1.3q-.51.23-1,.48a1.88,1.88,0,0,1-3.25,1.88q-.48.31-.93.66a1.88,1.88,0,0,1-2.87,2.42c-.27.26-.54.53-.8.81a1.87,1.87,0,0,1-2.41,2.86l-.66.94a1.87,1.87,0,0,1-1.87,3.24c-.17.34-.33.69-.48,1a1.87,1.87,0,0,1-1.27,3.51c-.11.36-.21.74-.31,1.11a1.87,1.87,0,0,1-.64,3.67c0,.38-.07.77-.09,1.15a1.86,1.86,0,0,1,0,3.72c0,.39.06.78.1,1.16a1.86,1.86,0,0,1,.64,3.66c.1.38.2.75.31,1.12a1.86,1.86,0,0,1,1.27,3.48Zm3.23-11.3a22.41,22.41,0,1,1,22.41,22.41A22.44,22.44,0,0,1,211,179.81Z"/><path class="cls-2" d="M227,179.82a6.4,6.4,0,1,0,6.4-6.4A6.39,6.39,0,0,0,227,179.82Z"/><path class="cls-2" d="M209.92,186.52a10.5,10.5,0,0,1-.13-1.33l0-.78,6-.89,10.7-5.5-6.17-8.66-5.24-2.93v-.52a6.06,6.06,0,0,1,2.17-4.15,13.38,13.38,0,0,1,4.45-2.56l.75-.23,2,4.53,10,10.41.84-.43.62.83,11.91-4.46,3.66-3.92.51.12a6.07,6.07,0,0,1,3.51,3.09,13.57,13.57,0,0,1,1.43,4.93l0,.78L250.86,176l-9.92,5.13,6.68,9.09,5,2.84v.52a6,6,0,0,1-2.2,4.13,13.38,13.38,0,0,1-4.47,2.52l-.75.23-2.07-4.71L232.67,185.4l-.7.35-.65-.91-12.61,4.91-3.79,3.78-.5-.14a5.21,5.21,0,0,1-1.93-1.21l-1,.39L208.91,187Z"/><path class="cls-2" d="M224.81,179.35a8.44,8.44,0,1,0,8.44-8.43A8.44,8.44,0,0,0,224.81,179.35Z"/><path class="cls-2" d="M208.1,179.82a25.3,25.3,0,1,0,25.3-25.3A25.33,25.33,0,0,0,208.1,179.82Zm5.61,0a19.69,19.69,0,1,1,19.69,19.69A19.71,19.71,0,0,1,213.71,179.82Z"/><path class="cls-4" d="M116.79,67.42h1.51s0-1.23-.51-5.86a145,145,0,0,0-4.3-22.23,46.5,46.5,0,0,0-2.62-6.58c-1.35-2.91-2.42-5.21-2.49-9.16-.09-4.54,8.1-6.27,8.18-6.28l-.3-1.48c-.39.08-9.5,2-9.39,7.78.08,4.27,1.27,6.82,2.64,9.77a45.89,45.89,0,0,1,2.54,6.38,144.65,144.65,0,0,1,4.24,22C116.78,66.22,116.79,67.41,116.79,67.42Z"/><path class="cls-4" d="M283.51,80.38l1.27-.82a93.74,93.74,0,0,1-5.35-9.32C277.56,66.15,271.24,54,266.88,52a22.88,22.88,0,0,0-15.65-1.68c-2.45.5-5.39,1.27-8.23,2a64,64,0,0,1-8.11,1.86l.08,1.5a59.64,59.64,0,0,0,8.41-1.9c2.83-.75,5.75-1.52,8.15-2a21.54,21.54,0,0,1,14.73,1.58c3.61,1.65,9.62,12.68,11.8,17.46A92.59,92.59,0,0,0,283.51,80.38Z"/><path class="cls-9" d="M271.31,6.42l9.18,5.08.2.14a9.82,9.82,0,0,0,2.43,1.66,4.05,4.05,0,0,0,1.29.18,5,5,0,0,0,.64,0l.12,0h.12c8.13.56,18,1.15,20.45,1.15h.44a4.63,4.63,0,0,0,2.34-1.19l4-4a8.92,8.92,0,0,1,3.33-1.61l.36-.1.6,2.18-.37.1a7.27,7.27,0,0,0-2.32,1l-3.95,4a6.94,6.94,0,0,1-3.69,1.83,5.25,5.25,0,0,1-.67,0c-3.58,0-18.64-1-20.52-1.15a6.63,6.63,0,0,1-.82.05,6.2,6.2,0,0,1-2-.3,11.35,11.35,0,0,1-3.12-2l-9.08-5Z"/><path class="cls-2" d="M274.78,66.73l12.75-41a24.39,24.39,0,0,1,2-3.93c.87-1.4,3.82-3.92,5.63-5.26,0,0,1.28-1.6-.29-3.85s-3.34-1.08-3.34-1.08c-.54.4-5.36,4-7.2,7a29,29,0,0,0-2.55,5.15l0,.11-12.77,41.1Z"/><rect class="cls-2" x="287.84" y="9.13" width="6.41" height="13.11" transform="translate(261.39 305.65) rotate(-87.24)"/><path class="cls-2" d="M117,23.22l2-9.87,22.26,4.92v0l.19.06a5.3,5.3,0,0,1,3.56-.91c3.2.38,4,1.13,5.27,2.45s2.26,2.26,1.89,2.83a6.63,6.63,0,0,1-2.32.94l-1.07,3.67c.7.63,1.76,1.71,1.5,2.36s-1.37.52-2.31.4l-4.65,16L132.88,42.9l5.55-16.17Z"/><path class="cls-2" d="M105.05,83.87a.17.17,0,0,0-.23.11l-.74,2.28a.18.18,0,0,0,.12.24l11,4.83a.24.24,0,0,0,.27-.1l1.31-2.12a.15.15,0,0,0-.08-.23Z"/><path class="cls-4" d="M110,83.49c-.2-.62-.3-1-.44-1.51a32.73,32.73,0,0,1-.56-4.14l1.51-.76-.38-3.39,3.2-1.25.38,2.38.54.1a39.24,39.24,0,0,0,1.78-3.8,9.47,9.47,0,0,1,2.76,1.63c.94.94,0,2.45-1.32,5.65S113.35,88,111.85,89s-3.71-1.45-3.71-1.45S109.15,85.49,110,83.49Z"/><polygon class="cls-9" points="109.64 86.04 112.55 87.25 113.23 85.77 110.33 84.56 109.64 86.04"/><path class="cls-9" d="M106.38,86.25a.76.76,0,1,0,.76-.76A.76.76,0,0,0,106.38,86.25Z"/><path class="cls-9" d="M112.85,89.07a.76.76,0,1,0,.75-.75A.76.76,0,0,0,112.85,89.07Z"/><path class="cls-4" d="M119.77,66.73a7.46,7.46,0,0,0-4.51.14l.63,2.46,3.24-.08Z"/><polygon class="cls-4" points="116.64 72.81 118.42 72.75 118.2 68.05 116.42 68.11 116.64 72.81"/><path class="cls-9" d="M112.69,80.22A1.32,1.32,0,1,0,114,78.9,1.32,1.32,0,0,0,112.69,80.22Z"/><path class="cls-4" d="M113.32,80.22a.69.69,0,1,0,.69-.69A.69.69,0,0,0,113.32,80.22Z"/><path class="cls-4" d="M114.91,65.6a.35.35,0,0,0,.37.31h3.9a.32.32,0,1,0,0-.63h-3.9A.35.35,0,0,0,114.91,65.6Z"/><path class="cls-4" d="M284.05,78.56a.34.34,0,0,1,.51.06l5.74,8.07a.38.38,0,0,1-.09.53l-2.9,2.11a.37.37,0,0,1-.52-.1s-2.14-3.27-2-3.53A6.28,6.28,0,0,1,286,84.24a.49.49,0,0,0,.09-.58L285,81.88a.45.45,0,0,0-.54-.19l-.72.26a.57.57,0,0,1-.59-.16l-.92-1.18a.4.4,0,0,1,.06-.54Z"/><path class="cls-4" d="M293.08,84.13c-.47,0-3.49-.08-3.49-.08a.23.23,0,0,0-.24.34l1.49,3.77a1.44,1.44,0,0,0,.44.57l1.9,1.43a.56.56,0,0,0,.61,0l1.08-.77a.39.39,0,0,0,.1-.53l-1-1.45a.48.48,0,0,0-.56-.18l-.36.13a.22.22,0,0,1-.32-.24Z"/><path class="cls-5" d="M291.17,100l7.33-5.33s2.43-1.49,3.19-.21-.91,3.08-.91,3.08-5.74,3.86-6.93,4.61c-.73.45-2.57.63-3.25-.42C290.15,101,291.17,100,291.17,100Z"/><path class="cls-5" d="M286.84,89.8a.38.38,0,0,1,.1-.53l3.68-2.54a.4.4,0,0,1,.53.09l3.17,4.28a4.27,4.27,0,0,1,.4.64,2.26,2.26,0,0,1,.2,1.11,3.08,3.08,0,0,0,.14,1.17,2.09,2.09,0,0,0,.15.38s-.12.13-.28.26l-2.85,2a.51.51,0,0,1-.57,0,5,5,0,0,1-.45-.56Z"/><path class="cls-4" d="M294.92,94l2.86,3.64a2.5,2.5,0,0,1-.75,2.24,2.35,2.35,0,0,1-2.88-.33l-2.67-3.15A14.68,14.68,0,0,0,294.92,94Z"/><path class="cls-6" d="M294.45,98.27a1.29,1.29,0,1,0,2.57.18,1.29,1.29,0,0,0-2.57-.18Z"/><path class="cls-8" d="M295.23,98.33a.51.51,0,1,0,.54-.47A.51.51,0,0,0,295.23,98.33Z"/><rect class="cls-3" x="288.54" y="90.59" width="4.21" height="0.82" transform="translate(0.44 183.39) rotate(-35.04)"/><path class="cls-6" d="M299.08,95.82a.91.91,0,0,0,.84,1,.91.91,0,1,0,.13-1.82A.91.91,0,0,0,299.08,95.82Z"/><path class="cls-7" d="M299.64,95.85a.35.35,0,1,0,.37-.31A.34.34,0,0,0,299.64,95.85Z"/><path class="cls-6" d="M291.27,101.15a.91.91,0,1,0,1.82.12.91.91,0,0,0-.84-1A.92.92,0,0,0,291.27,101.15Z"/><path class="cls-7" d="M291.84,101.19a.34.34,0,0,0,.32.36.35.35,0,0,0,.37-.32.34.34,0,0,0-.32-.36A.33.33,0,0,0,291.84,101.19Z"/><path class="cls-4" d="M281.12,79.52a.37.37,0,0,0,.52.11l2.81-1.89a.4.4,0,0,0,.11-.53l-.14-.21a.39.39,0,0,0-.53-.1l-2.81,1.89a.38.38,0,0,0-.1.53Z"/><path class="cls-10" d="M117.08,82.63,119.8,71.9l15.82,6.27-7,10.23L93.38,161A83.41,83.41,0,0,0,84.65,157Z"/><path class="cls-11" d="M84.65,157A83.41,83.41,0,0,1,93.38,161L91,165.81a4.5,4.5,0,0,1-6,1.48c-3.81-2-2.48-5.43-2.48-5.43Z"/><path class="cls-10" d="M268.08,77.42l4-15.9L209.18,47.21c-1.61-.39-29.76-7.23-38.87-8.36s-28.07-.81-28.87-.79l4.35,13.87c.19,0,15.36-2.71,24-1.63s37.1,5.27,37.39,5.34h.07l50.68,11.6Z"/><polygon class="cls-10" points="236.15 186.25 278.96 58.82 270.74 56.09 227.93 183.52 236.15 186.25"/><polygon class="cls-10" points="119.55 72.27 136.64 78.73 151.8 39.9 134.05 32.97 119.55 72.27"/><path class="cls-10" d="M143.28,49.8l7,.25s-2.51,1.25-2.76,2.26-1.63,3.64-1.63,6.9a33.72,33.72,0,0,0,.2,3.67l92,110.11-8.86,11.39-89-103.13a17,17,0,0,1-2.24-.82c-.63-.37-.76-.37-1.13-2-.1-.4-.17-.87-.24-1.35l-.89-1Z"/><polygon class="cls-2" points="134.05 32.97 137.51 32.22 145.92 35.49 147.55 38.25 134.05 32.97"/><path class="cls-4" d="M323.06,6.27s-3.95,3.58-6,4.52-4-3.2-4-3.2l10.36-4.14Z"/><path class="cls-12" d="M298.39,2.88c-14.12.38-26.55.19-31.07.38s-6.59.57-8.47,1.51-4.71,1.32-4.9,1.88,1.19,2.64,2.83,3.14,9.41-.88,14.68-1.07,20,1.32,23.54,3,4.9,2.63,8.86,2.07,8.85-4.9,12.43-6.22,8.47-2.07,9.22-3.2S327.16,1,326.64.44C325.14-1.26,312.52,2.51,298.39,2.88Z"/><path class="cls-5" d="M84.27,163a3,3,0,1,0,3-3A3,3,0,0,0,84.27,163Z"/><path class="cls-8" d="M86,163a1.32,1.32,0,1,0,1.32-1.32A1.32,1.32,0,0,0,86,163Z"/><polygon class="cls-4" points="269.14 56.53 280.9 60.33 282.07 56.75 270.3 52.95 269.14 56.53"/><path class="cls-4" d="M111.77,18.7a5.56,5.56,0,0,0,11.11,0,5.56,5.56,0,0,0-11.11,0Z"/><path class="cls-2" d="M90.91,28c1-6.95,7.36-12.62,12.77-14.42A16.86,16.86,0,0,1,109,12.8a32.84,32.84,0,0,1,10,1.74l.08,0a4.23,4.23,0,0,1,2.08,5.63,3.72,3.72,0,0,1-3.43,2.45,4,4,0,0,1-1.49-.29A25.17,25.17,0,0,0,109,21.08a8.56,8.56,0,0,0-2.68.36c-2.66.89-6.63,4.09-7.2,7.8A14.66,14.66,0,0,0,105,43.9c3.78,2.72,15.38,5.15,21.8,6l.13,0c.86.34,2.33,1.68,1.73,4.39-.82,3.69-2.71,3.79-2.92,3.79h-.08c-1.91-.27-18.83-2.73-25.49-7.52C92.91,45.39,89.53,37.14,90.91,28Z"/><path class="cls-2" d="M74.61,10s-2.64,1.88-2.08,3.2,2.45,2.64,2.64,4.33-1.5,3.77-1.5,4.9,2.44,8.28,3.76,14.5,1.13,6.78.19,8.47-1.32,3-.57,3.58,2.08-.19,3.21-1.69a66.23,66.23,0,0,0,4.89-6.6c1.13-2.07,1.89-5.27,1.32-5.83S81,30,80.63,28.81a9.37,9.37,0,0,1,.19-5.08c.38-1.51,3-2.45,3-2.45a62.89,62.89,0,0,0-4.52-7.54A10.38,10.38,0,0,0,74.61,10Z"/><path class="cls-5" d="M92.69,26.17A21.72,21.72,0,0,0,98,22.78a17.22,17.22,0,0,0,4-5.27,7.74,7.74,0,0,0,.94-3.39s-6.42.84-10.92-.38c-7-1.88-6.59-5.08-7.34-7.34C84,4.75,81.2,5.08,79.69,4.52s-3.42.63-5.27,1.69c-1.32.76-3.2,2.07-2.64,3s5.65,5.28,6,7a7.89,7.89,0,0,0,2.07,4,20.8,20.8,0,0,0,6.78,4C89.86,25.23,92.69,26.17,92.69,26.17Z"/><path class="cls-8" d="M351.57,165a7.17,7.17,0,1,1-7.17-7A7.1,7.1,0,0,1,351.57,165Z"/><path class="cls-10" d="M231.69,184.24c-4.8.41,9,3.07,42.1-2.11,36.59-5.74,73-21.22,73.5-21.31l-1.88-2.13c-.45.09-60,10.36-75.37,12.59s-42.05.72-36.31.27Z"/><path class="cls-10" d="M345.64,164s2.05,1.17,3,0-.41-2.73-.41-2.73c-.34-.33-34.64-35.55-40.61-42.83-13.71-16.69-31.55-40.06-34.79-44L266,83.62c8.49,11.36,28.33,29.68,39.65,40.63C312.52,130.88,344.27,162.69,345.64,164Z"/><circle class="cls-10" cx="344.4" cy="164.99" r="4"/><path class="cls-5" d="M346.73,165a2.33,2.33,0,1,1-2.33-2.34A2.33,2.33,0,0,1,346.73,165Z"/><path class="cls-7" d="M345.57,165a1.17,1.17,0,1,1-1.17-1.17A1.17,1.17,0,0,1,345.57,165Z"/></svg>